<?xml version="1.0" standalone="no"?>
<!DOCTYPE svg PUBLIC "-//W3C//DTD SVG 1.1//EN" "http://www.w3.org/Graphics/SVG/1.1/DTD/svg11.dtd" >
<svg xmlns="http://www.w3.org/2000/svg" xmlns:xlink="http://www.w3.org/1999/xlink" version="1.1">
<metadata>
Created by FontForge 20200427 at Wed Jan  7 23:40:32 2015
 By www
Copyright (c) 2014 by Daniel Hernandez &#38; Miguel Hernandez. All rights reserved.
</metadata>
<defs>
<font id="TextaW00-Heavy" horiz-adv-x="597" >
  <font-face 
    font-family="TextaW00-Heavy"
    font-weight="800"
    font-stretch="normal"
    units-per-em="1000"
    panose-1="2 0 0 0 0 0 0 0 0 0"
    ascent="800"
    descent="-200"
    x-height="420"
    cap-height="600"
    bbox="-28 -192 982 818"
    underline-thickness="50"
    underline-position="-175"
    unicode-range="U+000D-25CA"
  />
<missing-glyph horiz-adv-x="564" 
 />
    <glyph glyph-name=".notdef" horiz-adv-x="564" 
 />
    <glyph glyph-name=".null" horiz-adv-x="0" 
 />
    <glyph glyph-name="uni000D" unicode="&#xd;" horiz-adv-x="206" 
 />
    <glyph glyph-name="glyph43" horiz-adv-x="0" 
 />
    <glyph glyph-name="glyph43" horiz-adv-x="0" 
 />
    <glyph glyph-name="space" unicode=" " horiz-adv-x="206" 
 />
    <glyph glyph-name="exclam" unicode="!" horiz-adv-x="233" 
d="M156 199h-80l-30 401h140zM44 65q0 31 21 52.5t51 21.5q31 0 52.5 -21.5t21.5 -52.5t-21.5 -52t-52.5 -21q-30 0 -51 21t-21 52z" />
    <glyph glyph-name="quotedbl" unicode="&#x22;" horiz-adv-x="340" 
d="M115 475h-71l14 209h104zM269 475h-71l15 209h104z" />
    <glyph glyph-name="numbersign" unicode="#" horiz-adv-x="653" 
d="M503 434h120l-16 -70h-120l-32 -145h120l-16 -70h-119l-33 -149h-75l33 149h-142l-33 -149h-75l33 149h-118l15 70h118l32 145h-117l15 70h118l33 149h75l-33 -149h142l33 149h75zM238 219h142l32 145h-142z" />
    <glyph glyph-name="dollar" unicode="$" horiz-adv-x="530" 
d="M99 156q18 -13 40 -24q19 -10 44.5 -19t54.5 -13v153q-98 28 -147.5 69t-49.5 113q0 74 49 122t148 55v104h59v-104q50 -3 85 -13t58 -21q26 -12 43 -27l-65 -99q-15 10 -33 20q-16 8 -38 16t-50 12v-138q102 -29 151.5 -71.5t49.5 -114.5q0 -37 -12.5 -70t-37 -58
t-62.5 -41t-89 -19v-95h-59v95q-52 4 -90 16t-64 26q-30 16 -51 34zM359 165q0 22 -12.5 37.5t-49.5 30.5v-133q32 6 47 23t15 42zM177 442q0 -20 13.5 -33.5t47.5 -26.5v118q-31 -5 -46 -20t-15 -38z" />
    <glyph glyph-name="percent" unicode="%" horiz-adv-x="671" 
d="M172 613q33 0 58.5 -12t43 -32.5t26.5 -47t9 -56.5q0 -29 -9 -56t-26.5 -47.5t-43 -33t-58.5 -12.5q-32 0 -57.5 12.5t-43 33t-27 47.5t-9.5 56q0 30 9.5 56.5t27 47t43 32.5t57.5 12zM172 543q-26 0 -39.5 -20t-13.5 -58t13.5 -58t39.5 -20t39.5 20t13.5 58t-13.5 58
t-39.5 20zM500 289q33 0 58.5 -12t43 -32.5t27 -47.5t9.5 -57q0 -29 -9.5 -55.5t-27 -47t-43 -33t-58.5 -12.5q-32 0 -57.5 12.5t-43 33t-27 47t-9.5 55.5q0 30 9.5 57t27 47.5t43 32.5t57.5 12zM500 219q-53 0 -53 -79q0 -37 13.5 -57t39.5 -20t39.5 20t13.5 57
q0 79 -53 79zM623 600l-477 -600h-102l478 600h101z" />
    <glyph glyph-name="ampersand" unicode="&#x26;" horiz-adv-x="637" 
d="M592 289q-17 -97 -72 -171l121 -118h-167l-37 38q-35 -23 -75 -35.5t-85 -12.5q-61 0 -105 13.5t-73 37t-43 55.5t-14 70q0 31 9.5 55t25.5 43.5t37 34.5t45 27l-11 11q-26 27 -40.5 57.5t-14.5 64.5q0 32 12.5 60t36 49t57.5 33t78 12q43 0 77 -11t58 -31t37 -47.5
t13 -59.5q0 -33 -10.5 -58.5t-27.5 -45.5t-40 -35t-47 -27l101 -99q14 25 24 54.5t15 61.5zM278 93q45 0 83 23l-126 131q-26 -15 -43 -34t-17 -45q0 -33 27.5 -54t75.5 -21zM213 452q0 -20 11 -36.5t34 -39.5l3 -4q35 16 58.5 34t23.5 45q0 28 -16.5 45.5t-48.5 17.5
t-48.5 -17.5t-16.5 -44.5z" />
    <glyph glyph-name="quotesingle" unicode="'" horiz-adv-x="186" 
d="M115 475h-71l14 209h104z" />
    <glyph glyph-name="parenleft" unicode="(" horiz-adv-x="288" 
d="M156 287q0 -81 15.5 -141t35 -102t38.5 -66t27 -33l-78 -82q-9 10 -35.5 40t-55 82.5t-50.5 127.5t-22 174t22 174.5t50.5 128t55 82.5t35.5 40l78 -82q-8 -9 -27 -33.5t-38.5 -66t-35 -102t-15.5 -141.5z" />
    <glyph glyph-name="parenright" unicode=")" horiz-adv-x="288" 
d="M131 287q0 81 -15 141.5t-35 102t-39 66t-26 33.5l78 82q9 -10 35.5 -40t54.5 -82.5t50 -128t22 -174.5t-22 -174t-50 -127.5t-54.5 -82.5t-35.5 -40l-78 82q7 9 26 33t39 66t35 102t15 141z" />
    <glyph glyph-name="asterisk" unicode="*" horiz-adv-x="386" 
d="M156 534l-121 20l26 77l109 -57l-17 123h80l-20 -124l112 58l25 -77l-121 -20l87 -91l-66 -47l-57 110l-58 -110l-65 47z" />
    <glyph glyph-name="plus" unicode="+" horiz-adv-x="503" 
d="M301 343h168v-98h-168v-164h-99v164h-167v98h167v172h99v-172z" />
    <glyph glyph-name="comma" unicode="," horiz-adv-x="221" 
d="M179 53q0 -31 -8.5 -59.5t-26 -52.5t-43 -40.5t-59.5 -23.5l-18 63q59 13 69 52q-23 5 -38.5 23t-15.5 44q0 29 20.5 49.5t49.5 20.5t49.5 -20.5t20.5 -49.5v-6z" />
    <glyph glyph-name="hyphen" unicode="-" horiz-adv-x="380" 
d="M50 278h280v-98h-280v98z" />
    <glyph glyph-name="period" unicode="." horiz-adv-x="218" 
d="M109 -10q-29 0 -49.5 20t-20.5 49t20.5 49.5t49.5 20.5t49.5 -20.5t20.5 -49.5t-20.5 -49t-49.5 -20z" />
    <glyph glyph-name="slash" unicode="/" horiz-adv-x="609" 
d="M20 -112l449 895h119l-447 -895h-121z" />
    <glyph glyph-name="zero" unicode="0" horiz-adv-x="620" 
d="M310 -13q-67 0 -117.5 25.5t-84.5 68t-51 99.5t-17 120t17 120t51 99.5t84.5 68t117.5 25.5t118 -25.5t84.5 -68t50.5 -99.5t17 -120t-17 -120t-50.5 -99.5t-84.5 -68t-118 -25.5zM310 103q36 0 63 14.5t45.5 41t27.5 62.5t9 79t-9 79t-27.5 62t-45.5 41t-63 15
t-63.5 -15t-45.5 -41t-27.5 -62t-9.5 -79t9.5 -79t27.5 -62.5t45.5 -41t63.5 -14.5z" />
    <glyph glyph-name="one" unicode="1" horiz-adv-x="327" 
d="M15 600h248v-600h-121v494h-127v106z" />
    <glyph glyph-name="two" unicode="2" horiz-adv-x="517" 
d="M43 87l233 226q28 28 38 48.5t10 47.5q0 35 -25.5 60.5t-71.5 25.5q-23 0 -42.5 -6t-36 -15t-30 -19.5t-24.5 -19.5l-64 97q23 22 55 40q27 15 66 28t90 13q55 0 97 -15t70.5 -41t43.5 -60.5t15 -72.5q0 -48 -15 -86t-53 -74l-163 -158h238v-106h-431v87z" />
    <glyph glyph-name="three" unicode="3" horiz-adv-x="514" 
d="M153 271v73l142 150h-247v106h408v-91l-138 -150q81 -13 118 -54.5t37 -119.5q0 -39 -14 -74.5t-43 -62t-74 -42.5t-107 -16q-54 0 -92 12.5t-63 27.5q-29 18 -49 41l63 88q17 -17 38 -30q18 -11 43.5 -20t57.5 -9q58 0 84 25.5t26 62.5q0 38 -26 60.5t-85 22.5h-79z" />
    <glyph glyph-name="four" unicode="4" horiz-adv-x="572" 
d="M21 219l317 381h111v-365h94v-105h-94v-130h-121v130h-307v89zM169 235h159v195l-139 -170q-4 -5 -7.5 -8.5l-6.5 -6.5l-6 -6v-4z" />
    <glyph glyph-name="five" unicode="5" horiz-adv-x="506" 
d="M184 494l-3 -119q25 3 57 3q63 0 107.5 -13.5t73 -38.5t41.5 -59t13 -76q0 -43 -14.5 -80t-43.5 -64t-73.5 -42.5t-105.5 -15.5q-53 0 -91 12.5t-64 28.5q-30 18 -50 41l63 88q17 -17 38 -30q18 -11 43.5 -20t57.5 -9q55 0 82.5 23.5t27.5 64.5q0 38 -31 63.5t-105 25.5
q-58 0 -93.5 -9.5t-35.5 -10.5l-13 9l9 334h363v-106h-253z" />
    <glyph glyph-name="six" unicode="6" horiz-adv-x="552" 
d="M178 332q23 23 54.5 35.5t71.5 12.5q47 0 86.5 -13t67.5 -37t43.5 -58.5t15.5 -77.5q0 -46 -17.5 -83.5t-48.5 -64.5t-72.5 -42t-89.5 -15q-50 0 -95 16t-79 51t-54 91t-20 137q0 75 17.5 135t50.5 102t80 64.5t106 22.5q51 0 87.5 -12t60.5 -26q27 -17 46 -37l-67 -96
q-11 9 -22.5 19t-26.5 18.5t-33.5 13.5t-43.5 5q-54 0 -86 -35t-32 -113v-13zM180 191q8 -47 36 -70t70 -23q47 0 74.5 27.5t27.5 66.5q0 38 -27 64.5t-73 26.5t-75 -26t-32 -66h-1z" />
    <glyph glyph-name="seven" unicode="7" horiz-adv-x="471" 
d="M27 600h430v-86l-256 -514h-139l252 494h-287v106z" />
    <glyph glyph-name="eight" unicode="8" horiz-adv-x="543" 
d="M272 -13q-56 0 -99 14.5t-72 40t-44.5 59.5t-15.5 73q0 92 77 140q-31 23 -46 55.5t-15 70.5q0 36 13.5 67.5t40 55t67 37t94.5 13.5t94 -13.5t66.5 -37t40 -55t13.5 -67.5q0 -38 -15.5 -70.5t-46.5 -55.5q38 -23 58 -58.5t20 -81.5q0 -39 -15.5 -73t-44.5 -59.5t-72 -40
t-98 -14.5zM374 179q0 37 -27.5 62.5t-74.5 25.5t-75 -25.5t-28 -62.5q0 -36 28 -61.5t75 -25.5t74.5 25.5t27.5 61.5zM272 354q42 0 66 22t24 54t-24 54.5t-66 22.5t-66.5 -22.5t-24.5 -54.5t24.5 -54t66.5 -22z" />
    <glyph glyph-name="nine" unicode="9" horiz-adv-x="551" 
d="M258 102q54 0 85.5 35.5t29.5 113.5v13q-23 -23 -55 -35.5t-71 -12.5q-47 0 -86 12.5t-67 36.5t-43.5 58.5t-15.5 78.5q0 46 17.5 84t48 65t72 42t89.5 15q50 0 95 -16t79.5 -51.5t54.5 -91.5t20 -137q0 -75 -17 -135t-49.5 -102t-79 -65t-106.5 -23q-51 0 -88 11.5
t-60 25.5q-27 17 -45 38l66 96q11 -9 22.5 -19t26.5 -18.5t33.5 -13.5t43.5 -5zM370 405q-8 47 -35.5 70t-69.5 23q-46 0 -73.5 -27t-27.5 -67q0 -38 26.5 -64.5t73.5 -26.5q45 0 74.5 26t31.5 66z" />
    <glyph glyph-name="colon" unicode=":" horiz-adv-x="236" 
d="M63 45q-6 23 5.5 43t34.5 26q23 7 43 -5t27 -35q6 -23 -5.5 -43t-34.5 -26q-23 -7 -43.5 5t-26.5 35zM63 342q-6 23 5.5 43.5t34.5 26.5t43 -5.5t27 -34.5q6 -23 -5.5 -43t-34.5 -27q-23 -6 -43.5 5.5t-26.5 34.5z" />
    <glyph glyph-name="semicolon" unicode=";" horiz-adv-x="244" 
d="M192 53q0 -62 -34 -112t-102 -64l-19 63q59 13 69 52q-23 5 -38 23t-15 44q0 29 20 49.5t49 20.5t49.5 -20.5t20.5 -49.5v-6zM122 288q-29 0 -49 20t-20 49t20 49.5t49 20.5t49.5 -20.5t20.5 -49.5t-20.5 -49t-49.5 -20z" />
    <glyph glyph-name="less" unicode="&#x3c;" horiz-adv-x="369" 
d="M35 344l272 166v-130l-172 -81l172 -83v-129l-272 168v89z" />
    <glyph glyph-name="equal" unicode="=" horiz-adv-x="453" 
d="M55 437h344v-98h-344v98zM55 246h344v-97h-344v97z" />
    <glyph glyph-name="greater" unicode="&#x3e;" horiz-adv-x="369" 
d="M334 255l-272 -168v129l172 83l-172 81v130l272 -166v-89z" />
    <glyph glyph-name="question" unicode="?" horiz-adv-x="443" 
d="M27 555q17 16 43 29q22 11 54 20.5t76 9.5q46 0 84.5 -11.5t66 -33t43 -52t15.5 -69.5q0 -36 -10.5 -61.5t-27 -44.5t-35.5 -34t-36 -29t-29.5 -29t-14.5 -34l-3 -22h-95v33q0 39 18 63.5t39 44.5t39 40.5t18 51.5q0 32 -22.5 50t-62.5 18q-21 0 -39 -6t-32 -13
q-16 -8 -28 -18zM136 63q0 29 20.5 49.5t49.5 20.5q30 0 50 -20.5t20 -49.5t-20 -50t-50 -21q-29 0 -49.5 21t-20.5 50z" />
    <glyph glyph-name="at" unicode="@" horiz-adv-x="996" 
d="M738 51q-44 0 -72 13t-44.5 29.5t-23 33t-7.5 22.5h-5q-5 -9 -16 -24.5t-30 -30.5t-46 -26t-63 -11q-39 0 -71.5 13t-56 37t-36.5 58.5t-13 77.5q0 58 18 105t48.5 80t70.5 51t85 18q29 0 50.5 -7t37 -18t25 -25t15.5 -29l15 69h100l-27 -232q-3 -20 -3 -45
q0 -38 22.5 -60.5t60.5 -22.5q54 0 87 49.5t33 138.5q0 66 -24.5 132.5t-73 120t-120.5 87t-166 33.5q-92 0 -168 -33.5t-131 -89.5t-85.5 -130.5t-30.5 -156.5q0 -86 32.5 -161t88.5 -131t130.5 -88.5t159.5 -32.5q48 0 86.5 8.5t66.5 19.5q33 12 58 29l24 -51
q-26 -18 -61 -31q-30 -12 -73.5 -21.5t-100.5 -9.5q-104 0 -190.5 38.5t-148.5 103t-96.5 149t-34.5 176.5q0 95 34.5 180t96.5 149.5t149.5 102t193.5 37.5q97 0 179.5 -34t143 -92.5t94.5 -136t34 -165.5q0 -56 -15 -104.5t-43 -84.5t-69.5 -56.5t-93.5 -20.5zM468 171
q25 0 45.5 10t35 27.5t22.5 40t8 48.5q0 42 -22 65t-63 23q-23 0 -42.5 -9t-34.5 -25.5t-23.5 -39t-8.5 -50.5q0 -42 22.5 -66t60.5 -24z" />
    <glyph glyph-name="A" unicode="A" 
d="M600 0h-129l-43 116h-259l-43 -116h-129l238 600h127zM205 214h187l-94 252z" />
    <glyph glyph-name="B" unicode="B" horiz-adv-x="601" 
d="M564 175q0 -85 -57.5 -130t-160.5 -45h-278v600h271q103 0 155.5 -42.5t52.5 -120.5q0 -42 -21 -74.5t-56 -50.5v-6q45 -14 69.5 -48t24.5 -83zM189 256v-150h158q38 0 63 20.5t25 54.5q0 32 -25.5 53.5t-63.5 21.5h-157zM420 421q0 35 -22.5 54t-60.5 19h-148v-144h146
q38 0 61.5 20.5t23.5 50.5z" />
    <glyph glyph-name="C" unicode="C" horiz-adv-x="556" 
d="M542 61q-20 -21 -49 -38q-25 -14 -63.5 -25.5t-90.5 -11.5q-71 0 -127.5 24.5t-96.5 67.5t-61 100t-21 122t21 122t61 99.5t96.5 67t127.5 24.5q52 0 90.5 -11.5t63.5 -25.5q29 -17 49 -37l-70 -93q-15 14 -34 25q-17 10 -41.5 18t-56.5 8q-40 0 -73.5 -15t-57.5 -41
t-37.5 -62t-13.5 -79t13.5 -79t37.5 -62.5t57.5 -41.5t73.5 -15q32 0 56.5 8t41.5 18q19 11 34 26z" />
    <glyph glyph-name="D" unicode="D" horiz-adv-x="635" 
d="M601 300q0 -66 -22 -121t-62.5 -95t-98.5 -62t-129 -22h-221v600h221q71 0 129 -22t98.5 -62t62.5 -95t22 -121zM189 494v-388h92q41 0 76.5 13t62 38t41.5 61t15 82q0 47 -15 83.5t-41.5 61t-62 37t-76.5 12.5h-92z" />
    <glyph glyph-name="E" unicode="E" horiz-adv-x="537" 
d="M451 255h-262v-149h311v-106h-432v600h432v-106h-311v-141h262v-98z" />
    <glyph glyph-name="F" unicode="F" horiz-adv-x="535" 
d="M451 254h-262v-254h-121v600h434v-106h-313v-142h262v-98z" />
    <glyph glyph-name="G" unicode="G" horiz-adv-x="640" 
d="M322 348h294v-73q0 -65 -19.5 -118.5t-55.5 -91t-88 -58t-117 -20.5q-71 0 -127 24.5t-95 67t-60 99.5t-21 122t21 122t60.5 99.5t96 67t127.5 24.5q57 0 98 -12t67 -26q31 -17 51 -38l-73 -93q-16 15 -37 26q-18 10 -45 18.5t-62 8.5q-40 0 -73 -15t-56.5 -41t-36.5 -62
t-13 -79t13 -79t36.5 -62.5t56 -41.5t72.5 -15q69 0 107 39.5t40 99.5v8h-161v99z" />
    <glyph glyph-name="H" unicode="H" horiz-adv-x="655" 
d="M587 -1h-122v250h-276v-250h-121v601h121v-252h276v252h122v-601z" />
    <glyph glyph-name="I" unicode="I" horiz-adv-x="258" 
d="M189 0h-121v600h121v-600z" />
    <glyph glyph-name="J" unicode="J" horiz-adv-x="455" 
d="M70 138q11 -10 26 -17q13 -6 30.5 -11t39.5 -5q54 0 79 28.5t26 94.5v372h121v-396q0 -45 -13.5 -84.5t-40.5 -69.5t-68.5 -47t-99.5 -17q-40 0 -69.5 8.5t-49 18.5t-29.5 19l-10 9z" />
    <glyph glyph-name="K" unicode="K" horiz-adv-x="601" 
d="M189 322l256 278h146v-13l-223 -242l224 -332v-13h-135q-31 47 -62 93q-26 39 -56 83t-53 79l-97 -105v-150h-121v600h121v-278z" />
    <glyph glyph-name="L" unicode="L" horiz-adv-x="498" 
d="M68 0v600h121v-494h282v-106h-403z" />
    <glyph glyph-name="M" unicode="M" horiz-adv-x="728" 
d="M540 376l-152 -200h-48l-152 200v-376h-120v600h96l200 -269l200 269h95l1 -600h-120v376z" />
    <glyph glyph-name="N" unicode="N" horiz-adv-x="667" 
d="M599 0h-93l-317 389v-389h-121v600h93l317 -385v385h121v-600z" />
    <glyph glyph-name="O" unicode="O" horiz-adv-x="674" 
d="M336 -14q-68 0 -124 24.5t-96 67.5t-62 100t-22 122t22 122t62 99.5t96 67t124 24.5q69 0 125 -24.5t96 -67t62 -99.5t22 -122t-22 -122t-62 -100t-96 -67.5t-125 -24.5zM336 103q39 0 72 14.5t57 41t37.5 62.5t13.5 79t-13.5 79t-37.5 62t-57 41t-72 15t-71.5 -15
t-56 -41t-37 -62t-13.5 -79t13.5 -79t37 -62.5t56 -41t71.5 -14.5z" />
    <glyph glyph-name="P" unicode="P" horiz-adv-x="578" 
d="M324 600q52 0 94.5 -14.5t72.5 -40.5t46.5 -63.5t16.5 -82.5q0 -48 -16.5 -86t-47 -64t-73 -40t-94.5 -14h-134v-195h-121v600h256zM429 398q0 49 -31 72.5t-81 23.5h-128v-194h128q50 0 81 23.5t31 74.5z" />
    <glyph glyph-name="Q" unicode="Q" horiz-adv-x="674" 
d="M336 -14q-68 0 -124 24.5t-96 67.5t-62 100t-22 122t22 122t62 99.5t96 67t124 24.5q69 0 125 -24.5t96 -67t62 -99.5t22 -122q0 -91 -41 -164t-113 -113l71 -129h-134l-48 95q-20 -3 -40 -3zM336 103q39 0 72 14.5t57 41t37.5 62.5t13.5 79t-13.5 79t-37.5 62t-57 41
t-72 15t-71.5 -15t-56 -41t-37 -62t-13.5 -79t13.5 -79t37 -62.5t56 -41t71.5 -14.5z" />
    <glyph glyph-name="R" unicode="R" horiz-adv-x="599" 
d="M324 600q52 0 94.5 -14.5t72.5 -40.5t46.5 -63.5t16.5 -82.5q0 -66 -32 -112.5t-87 -69.5v-8l139 -197v-12h-136l-135 198h-114v-198h-121v600h256zM429 398q0 49 -31 72.5t-81 23.5h-128v-192h131q48 0 78.5 24t30.5 72z" />
    <glyph glyph-name="S" unicode="S" horiz-adv-x="525" 
d="M96 156q23 -17 50 -29q23 -11 53 -20t65 -9q48 0 70 18.5t22 48.5q0 15 -5 26.5t-18.5 21.5t-37 19.5t-59.5 20.5q-98 28 -148 69t-50 113q0 79 56.5 128.5t168.5 49.5q59 0 100 -10t67 -21q31 -14 50 -31l-65 -99q-19 14 -42 25q-20 9 -47.5 17t-62.5 8q-45 0 -67 -16
t-22 -44q0 -27 25.5 -43t89.5 -35q105 -29 155.5 -72t50.5 -116q0 -39 -14 -73.5t-42 -60t-70.5 -40.5t-100.5 -15q-60 0 -104.5 12t-74.5 26q-35 17 -59 39z" />
    <glyph glyph-name="T" unicode="T" horiz-adv-x="526" 
d="M24 600h478v-106h-179v-494h-121v494h-178v106z" />
    <glyph glyph-name="U" unicode="U" horiz-adv-x="637" 
d="M318 -14q-59 0 -107 20.5t-81.5 56.5t-51.5 85.5t-18 107.5v344h121v-344q0 -33 8.5 -61t26 -48.5t43 -32t59.5 -11.5q35 0 61 11.5t43 32t25 48.5t8 61v344h121v-344q0 -58 -17.5 -107.5t-50.5 -85.5t-81 -56.5t-109 -20.5z" />
    <glyph glyph-name="V" unicode="V" 
d="M-3 600h129l172 -466l173 466h129l-238 -600h-127z" />
    <glyph glyph-name="W" unicode="W" horiz-adv-x="801" 
d="M399 386l-110 -386h-94l-183 600h131l100 -374l108 374h96l109 -375l101 375h132l-183 -600h-93z" />
    <glyph glyph-name="X" unicode="X" horiz-adv-x="570" 
d="M376 307l184 -307h-147l-104 192l-24 49l-24 -49l-103 -192h-146l181 307l-177 293h146l101 -182l22 -50l24 50l100 182h145z" />
    <glyph glyph-name="Y" unicode="Y" horiz-adv-x="542" 
d="M413 600h133l-214 -367v-233h-121v231l-214 369h132l119 -209l24 -55l24 55z" />
    <glyph glyph-name="Z" unicode="Z" horiz-adv-x="544" 
d="M30 89l319 405h-308v106h468v-93l-313 -401h311v-106h-477v89z" />
    <glyph glyph-name="bracketleft" unicode="[" horiz-adv-x="330" 
d="M55 700h258v-98h-144v-634h144v-98h-258v830z" />
    <glyph glyph-name="backslash" unicode="\" horiz-adv-x="390" 
d="M27 798h119l217 -926h-119z" />
    <glyph glyph-name="bracketright" unicode="]" horiz-adv-x="330" 
d="M17 -32h144v634h-144v98h258v-830h-258v98z" />
    <glyph glyph-name="asciicircum" unicode="^" horiz-adv-x="402" 
d="M199 608l-69 -111h-91l128 196h64l131 -196h-94z" />
    <glyph glyph-name="underscore" unicode="_" horiz-adv-x="525" 
d="M41 -40h442v-98h-442v98z" />
    <glyph glyph-name="grave" unicode="`" horiz-adv-x="279" 
d="M37 632l136 20l39 -155h-81z" />
    <glyph glyph-name="a" unicode="a" horiz-adv-x="467" 
d="M417 0h-82l-16 53h-5q-17 -28 -50.5 -45.5t-84.5 -17.5q-73 0 -113.5 38t-40.5 95q0 64 47.5 101t143.5 37q27 0 48.5 -3t37.5 -8v13q0 39 -26 55t-74 16q-23 0 -43 -5t-35 -10q-18 -7 -32 -15l-38 88q18 10 44 19q22 7 53 13t73 6q96 0 144.5 -47t48.5 -124v-259z
M210 72q38 0 64 21t28 55v34q-8 5 -25.5 9t-46.5 4q-45 0 -68.5 -17t-23.5 -47q0 -26 19.5 -42.5t52.5 -16.5z" />
    <glyph glyph-name="b" unicode="b" horiz-adv-x="520" 
d="M54 605h120v-232h5q9 16 25 28q14 11 37 20t58 9q40 0 75 -16t60.5 -45.5t40 -70t14.5 -89.5q0 -50 -15 -90.5t-41 -69t-61.5 -44t-77.5 -15.5q-39 0 -65.5 10.5t-42.5 24.5q-18 16 -29 36h-5l-17 -61h-81v605zM168 211q0 -57 28 -89.5t73 -32.5q44 0 71.5 34t27.5 88
t-27.5 87t-71.5 33q-45 0 -73 -32t-28 -88z" />
    <glyph glyph-name="c" unicode="c" horiz-adv-x="408" 
d="M251 -10q-50 0 -90.5 16.5t-69.5 46t-45 69.5t-16 88t16 88t45 69.5t69.5 46t90.5 16.5q34 0 58.5 -6t41.5 -13q19 -9 32 -19l-31 -86q-12 7 -26 12q-12 5 -28.5 9t-35.5 4q-48 0 -79.5 -32t-31.5 -89t31.5 -89t79.5 -32q19 0 35.5 3.5t28.5 8.5q14 5 26 13l30 -85
q-13 -11 -32 -20q-17 -8 -41.5 -13.5t-57.5 -5.5z" />
    <glyph glyph-name="d" unicode="d" horiz-adv-x="521" 
d="M346 376v229h120v-605h-79l-19 58h-5q-12 -19 -30 -34q-16 -13 -42.5 -23.5t-64.5 -10.5q-42 0 -77.5 15.5t-62 44t-41.5 69t-15 90.5q0 49 14.5 89.5t40.5 70t61 45.5t76 16q34 0 57 -8.5t37 -18.5q16 -12 25 -27h5zM353 211q0 56 -28.5 88t-73.5 32q-44 0 -71.5 -33
t-27.5 -87t27.5 -88t71.5 -34q45 0 73.5 32.5t28.5 89.5z" />
    <glyph glyph-name="e" unicode="e" horiz-adv-x="460" 
d="M413 39q-16 -15 -39 -26q-20 -10 -49.5 -17.5t-69.5 -7.5q-53 0 -94.5 17t-70.5 46.5t-44.5 70t-15.5 88.5q0 47 15 87.5t42.5 70t65.5 46t85 16.5q93 0 144.5 -57t51.5 -152q0 -5 -0.5 -10.5t-0.5 -10.5v-12h-287q5 -54 35.5 -79.5t81.5 -25.5q25 0 45 5t34 12
q17 8 29 18zM235 340q-33 0 -55.5 -19.5t-30.5 -61.5h168q-4 38 -24.5 59.5t-57.5 21.5z" />
    <glyph glyph-name="f" unicode="f" horiz-adv-x="335" 
d="M214 327v-327h-120v327h-72v93h72v25q0 78 41 122.5t119 44.5q23 0 41.5 -3t31.5 -7q15 -4 27 -10l-37 -89q-6 2 -13 4q-6 2 -14 3.5t-19 1.5q-26 0 -41.5 -16.5t-15.5 -44.5v-31h111v-93h-111z" />
    <glyph glyph-name="g" unicode="g" horiz-adv-x="474" 
d="M396 330v-2q3 -4 6 -11q2 -6 4.5 -16.5t2.5 -25.5q0 -26 -11 -50.5t-33 -43.5t-55.5 -30t-78.5 -11q-40 0 -75 11q-12 -7 -16 -13.5t-4 -15.5q0 -7 3 -12.5t14 -10t32 -8t57 -5.5q60 -3 101 -11.5t66 -23.5t35.5 -37.5t10.5 -53.5q0 -29 -14 -55t-41.5 -45.5t-69.5 -31.5
t-97 -12q-56 0 -95.5 8.5t-65 23.5t-37 35.5t-11.5 44.5q0 26 14.5 50t49.5 44q-31 15 -43.5 37t-12.5 49q0 23 14 43.5t46 37.5q-39 37 -39 92q0 64 47.5 105.5t130.5 41.5q36 0 66 -8h154v-90h-55zM242 -6q-17 1 -32.5 2t-29.5 3q-17 -8 -29 -23t-12 -35t21.5 -34
t72.5 -14q54 0 79 14.5t25 36.5q0 10 -4 18.5t-14.5 15t-29 11t-47.5 5.5zM231 350q-33 0 -51 -20t-18 -47q0 -28 18 -47.5t51 -19.5q35 0 53.5 19.5t18.5 47.5q0 27 -18.5 47t-53.5 20z" />
    <glyph glyph-name="h" unicode="h" horiz-adv-x="514" 
d="M55 605h121v-224h4q17 23 45.5 36.5t72.5 13.5q77 0 122 -50.5t45 -136.5v-243h-120v232q0 39 -23 66t-61 27q-20 0 -35 -7t-26 -18.5t-17 -25.5t-7 -29v-246h-121v605z" />
    <glyph glyph-name="i" unicode="i" horiz-adv-x="231" 
d="M116 486q-30 0 -50 19t-20 49t20 49.5t50 19.5t50.5 -19.5t20.5 -49.5t-20.5 -49t-50.5 -19zM55 420h120v-420h-120v420z" />
    <glyph glyph-name="j" unicode="j" horiz-adv-x="232" 
d="M-2 -56h20q20 0 28.5 10.5t8.5 27.5v438h121v-444q0 -60 -32.5 -96t-95.5 -36h-50v100zM115 486q-29 0 -49.5 19t-20.5 49t20.5 49.5t49.5 19.5q30 0 51 -19.5t21 -49.5t-21 -49t-51 -19z" />
    <glyph glyph-name="k" unicode="k" horiz-adv-x="468" 
d="M457 420l-154 -183l160 -237h-145l-108 161l-35 -40v-121h-120v605h120v-355l137 170h145z" />
    <glyph glyph-name="l" unicode="l" horiz-adv-x="231" 
d="M56 605h120v-605h-120v605z" />
    <glyph glyph-name="m" unicode="m" horiz-adv-x="801" 
d="M464 0h-120v239q0 37 -21.5 62t-62.5 25t-62 -24t-23 -56v-246h-120v420h75l17 -59h7q21 33 53 51t82 18q51 0 88 -19t59 -54h6q20 33 52 53.5t85 20.5q81 0 127 -51t46 -136v-244h-120v234q0 38 -21 65t-62 27q-43 0 -64 -26t-21 -59v-241z" />
    <glyph glyph-name="n" unicode="n" horiz-adv-x="515" 
d="M175 0h-120v420h75l17 -59h7q24 35 54.5 52.5t81.5 17.5q81 0 128 -51t47 -136v-244h-120v234q0 38 -22 65t-63 27q-21 0 -36.5 -7.5t-26.5 -19.5t-16.5 -27.5t-5.5 -31.5v-240z" />
    <glyph glyph-name="o" unicode="o" horiz-adv-x="498" 
d="M468 208q0 -50 -17.5 -90t-47 -68.5t-69.5 -44t-85 -15.5t-85 15.5t-70 44t-47.5 68.5t-17.5 90t17.5 91t47.5 70t70 45t85 16t85 -16t69.5 -45t47 -70t17.5 -91zM249 85q44 0 72.5 33.5t28.5 91.5q0 57 -28.5 91t-72.5 34q-45 0 -73.5 -34t-28.5 -91q0 -58 28.5 -91.5
t73.5 -33.5z" />
    <glyph glyph-name="p" unicode="p" horiz-adv-x="520" 
d="M175 44v-200h-120v576h77l18 -59h6q12 19 31 34q17 13 43 24t65 11q42 0 77.5 -15.5t61.5 -44t41 -69t15 -90.5q0 -49 -14.5 -89.5t-40.5 -70t-61 -45.5t-75 -16q-35 0 -57.5 8t-36.5 19q-16 11 -25 27h-5zM169 209q0 -56 28 -88t72 -32q45 0 72.5 33t27.5 87t-27.5 88
t-72.5 34q-44 0 -72 -32.5t-28 -89.5z" />
    <glyph glyph-name="q" unicode="q" horiz-adv-x="520" 
d="M466 -156h-120v203h-5q-9 -17 -25 -29q-14 -11 -36.5 -19.5t-57.5 -8.5q-41 0 -76 16t-61 45.5t-40.5 70t-14.5 89.5q0 50 15 90.5t41.5 69t62 44t77.5 15.5q40 0 66 -11.5t43 -25.5q18 -17 30 -37h4l19 64h78v-576zM353 209q0 57 -28.5 89.5t-73.5 32.5q-44 0 -71.5 -34
t-27.5 -88t27.5 -87t71.5 -33q45 0 73.5 32t28.5 88z" />
    <glyph glyph-name="r" unicode="r" horiz-adv-x="306" 
d="M293 319h-22q-42 0 -69 -27t-27 -75v-217h-120v420h75l17 -62h6q33 62 117 62h23v-101z" />
    <glyph glyph-name="s" unicode="s" horiz-adv-x="424" 
d="M69 119q19 -12 41 -21q19 -8 43 -14t52 -6q35 0 49.5 10t14.5 26q0 17 -17.5 26.5t-43.5 17t-56.5 16t-56.5 23.5t-43.5 40t-17.5 65q0 54 42 91t126 37q45 0 79 -6t57 -13q27 -8 47 -18l-37 -89q-18 10 -38 18q-18 7 -41.5 13t-52.5 6q-61 0 -61 -35q0 -16 17.5 -25
t44.5 -15.5t57.5 -14.5t57.5 -23.5t44.5 -40.5t17.5 -66q0 -27 -10 -51t-32 -42t-56.5 -28t-83.5 -10q-48 0 -82 7t-57 16q-26 11 -43 24z" />
    <glyph glyph-name="t" unicode="t" horiz-adv-x="342" 
d="M87 420v128h120v-128h103v-93h-103v-188q0 -46 45 -46q17 0 31 7q7 3 14 7l34 -83q-14 -10 -43 -22t-65 -12t-62 11t-42.5 30t-24 45.5t-7.5 58.5v192h-73v93h73z" />
    <glyph glyph-name="u" unicode="u" horiz-adv-x="513" 
d="M338 420h120v-420h-80l-21 57h-5q-8 -11 -18.5 -23t-26 -21.5t-36.5 -16t-49 -6.5q-81 0 -126.5 50.5t-45.5 135.5v244h120v-234q0 -41 20 -68t61 -27q22 0 38 8t27 20.5t16.5 27.5t5.5 30v243z" />
    <glyph glyph-name="v" unicode="v" horiz-adv-x="461" 
d="M0 420h131l89 -244q7 -19 7 -34h6q0 8 2.5 17t5.5 17l89 244h131l-188 -420h-85z" />
    <glyph glyph-name="w" unicode="w" horiz-adv-x="667" 
d="M511 0h-102l-65 226q-3 11 -5.5 23t-2.5 24h-5q0 -12 -3 -24t-6 -23l-65 -226h-101l-152 420h127l68 -244q2 -8 4 -17t2 -17h6q0 8 3 18.5t5 18.5l64 241h103l63 -241q3 -9 5.5 -19t2.5 -18h6q0 8 2 16.5t4 17.5l69 244h125z" />
    <glyph glyph-name="x" unicode="x" horiz-adv-x="457" 
d="M152 214l-134 206h135l76 -132h3l76 132h134l-141 -206l146 -214h-135l-80 142h-3l-82 -142h-134z" />
    <glyph glyph-name="y" unicode="y" horiz-adv-x="456" 
d="M208 -156h-124l90 190l-173 386h132l89 -244q3 -8 5.5 -17t2.5 -17h6q0 15 7 34l89 244h122z" />
    <glyph glyph-name="z" unicode="z" horiz-adv-x="428" 
d="M33 0v66l206 257h-204v97h360v-60l-202 -263h202v-97h-362z" />
    <glyph glyph-name="braceleft" unicode="{" horiz-adv-x="304" 
d="M39 332q29 0 43 18t14 59v154q0 69 38.5 108t124.5 44l17 -100q-31 -5 -44.5 -15.5t-13.5 -44.5v-163q0 -39 -16 -65.5t-46 -36.5v-9q30 -9 46 -36t16 -65v-163q0 -33 13.5 -44t44.5 -15l-17 -100q-86 4 -124.5 43.5t-38.5 108.5v153q0 41 -14 59.5t-43 18.5h-23v91h23z
" />
    <glyph glyph-name="bar" unicode="|" horiz-adv-x="220" 
d="M165 -128h-110v815h110v-815z" />
    <glyph glyph-name="braceright" unicode="}" horiz-adv-x="304" 
d="M288 332v-91h-23q-29 0 -43 -18.5t-14 -59.5v-153q0 -69 -38.5 -108.5t-124.5 -43.5l-17 100q31 4 44.5 15t13.5 44v163q0 38 16 65t46 36v9q-30 10 -46 36.5t-16 65.5v163q0 34 -13.5 44.5t-44.5 15.5l17 100q86 -5 124.5 -44t38.5 -108v-154q0 -41 14 -59t43 -18h23z
" />
    <glyph glyph-name="asciitilde" unicode="~" horiz-adv-x="474" 
d="M308 331q17 0 31 3.5t24 8.5q11 5 21 12l39 -74q-12 -12 -29 -21q-14 -8 -35 -14t-48 -6q-21 0 -38 5t-34 11t-35 11t-40 5q-17 0 -31 -4t-24 -9q-11 -5 -21 -12l-38 74q13 11 30 21q14 8 35 14.5t47 6.5q21 0 38 -5t33.5 -11t34.5 -11t40 -5z" />
    <glyph glyph-name="uni00A0" unicode="&#xa0;" horiz-adv-x="206" 
 />
    <glyph glyph-name="exclamdown" unicode="&#xa1;" horiz-adv-x="223" 
d="M181 -176h-139l30 401h79zM38 359q0 30 21.5 51.5t52.5 21.5q30 0 51 -21.5t21 -51.5q0 -31 -21 -52.5t-51 -21.5q-31 0 -52.5 21.5t-21.5 52.5z" />
    <glyph glyph-name="cent" unicode="&#xa2;" horiz-adv-x="428" 
d="M198 85q-38 9 -68 28.5t-51 47t-32 62.5t-11 75q0 47 15.5 87t44.5 69t69 46t90 18l11 82h51l-11 -86q40 -7 63 -19q12 -6 21 -13l-31 -88q-8 5 -19 9q-9 4 -21 8t-26 6l-32 -240h8q19 0 35.5 3.5t28.5 8.5q14 5 26 13l30 -87q-14 -11 -33 -19q-17 -7 -41 -12.5t-56 -5.5
h-11l-10 -78h-51zM157 298q0 -38 14.5 -65.5t40.5 -41.5l29 225q-37 -9 -60.5 -39.5t-23.5 -78.5z" />
    <glyph glyph-name="sterling" unicode="&#xa3;" horiz-adv-x="513" 
d="M466 0h-414v106q1 0 10.5 5.5t21 17t20.5 28t9 39.5q0 11 -2.5 24.5t-5.5 29.5h-61v83h42q-5 21 -7.5 42t-2.5 41q0 39 15 73.5t43.5 61t70.5 41.5t97 15q44 0 76.5 -10t55.5 -22q26 -14 45 -31l-72 -99q-12 12 -27 22q-14 8 -32.5 15.5t-41.5 7.5q-48 0 -71.5 -25.5
t-23.5 -64.5q0 -30 8 -67h179v-83h-162q6 -29 6 -54q0 -28 -7 -50t-18 -40h249v-106z" />
    <glyph glyph-name="yen" unicode="&#xa5;" horiz-adv-x="606" 
d="M445 600h133l-169 -290h115v-84h-160v-54h160v-83h-160v-89h-121v89h-159v83h159v54h-159v84h113l-168 290h132l119 -209l24 -55l24 55z" />
    <glyph glyph-name="brokenbar" unicode="&#xa6;" horiz-adv-x="230" 
d="M60 330v343h110v-343h-110zM60 -153v342h110v-342h-110z" />
    <glyph glyph-name="section" unicode="&#xa7;" horiz-adv-x="541" 
d="M86 129q22 -13 50 -23q23 -8 56 -15t73 -7q52 0 73 11.5t21 28.5q0 11 -5.5 19.5t-18 15.5t-34 14t-53.5 16q-33 9 -65.5 20t-58 26.5t-41 37t-15.5 51.5q0 29 12.5 46t22.5 24q-48 28 -48 84q0 60 53.5 97.5t167.5 37.5q54 0 94 -7.5t66 -16.5q31 -11 51 -24l-52 -87
q-19 10 -44 19q-21 8 -50 14t-65 6q-45 0 -63.5 -11t-18.5 -28q0 -20 20.5 -31.5t68.5 -24.5q35 -9 71 -20.5t65.5 -27.5t48.5 -38t19 -53q0 -32 -12 -51.5t-21 -27.5q23 -16 35 -35.5t12 -45.5q0 -28 -14 -53t-42.5 -43.5t-72.5 -29.5t-104 -11t-103.5 9.5t-72.5 20.5
q-34 13 -58 30zM242 345q-11 3 -22 5.5t-21 5.5q-4 -2 -8 -7.5t-4 -18.5q0 -21 28.5 -36.5t73.5 -27.5q17 -5 33.5 -9.5t31.5 -9.5q3 3 7.5 10t4.5 19q0 25 -35 40t-89 29z" />
    <glyph glyph-name="dieresis" unicode="&#xa8;" horiz-adv-x="455" 
d="M78 706q0 25 18 43t41 18q24 0 42.5 -18t18.5 -43q0 -24 -18.5 -42t-42.5 -18q-23 0 -41 18t-18 42zM254 706q0 25 18 43t41 18q25 0 43 -18t18 -43q0 -24 -18 -42t-43 -18q-23 0 -41 18t-18 42z" />
    <glyph glyph-name="copyright" unicode="&#xa9;" horiz-adv-x="675" 
d="M338 605q70 0 125.5 -24t94 -66t59 -97.5t20.5 -118.5t-20.5 -118.5t-59 -97t-94 -65.5t-125.5 -24t-125.5 24t-94.5 65.5t-59.5 97t-20.5 118.5t20.5 118.5t59.5 97.5t94.5 66t125.5 24zM338 563q-60 0 -107 -20.5t-80 -56.5t-50.5 -84t-17.5 -103q0 -54 17.5 -102
t50.5 -83.5t80 -56.5t107 -21t107.5 21t80.5 56.5t50.5 83.5t17.5 102q0 55 -17.5 103t-50.5 84t-80.5 56.5t-107.5 20.5zM411 364q-7 6 -16 10q-8 4 -19 7.5t-25 3.5q-38 0 -60.5 -24t-22.5 -61q0 -38 22.5 -61.5t60.5 -23.5q14 0 25 3t19 8q9 4 16 11l42 -60
q-11 -11 -26 -19q-14 -7 -33.5 -12.5t-47.5 -5.5q-38 0 -68.5 12.5t-51.5 34.5t-32 51t-11 62t11 62.5t32 51.5t51.5 34.5t68.5 12.5q28 0 47.5 -6t33.5 -13q15 -9 26 -19z" />
    <glyph glyph-name="ordfeminine" unicode="&#xaa;" horiz-adv-x="390" 
d="M29 371q0 50 38.5 78.5t104.5 28.5q35 0 54.5 -6.5t28.5 -14.5v8q0 38 -17.5 58t-61.5 20q-28 0 -52.5 -7.5t-36.5 -13.5l-25 65q17 7 37 13q17 5 40 9.5t49 4.5q82 0 116.5 -40t34.5 -111v-189h-62l-12 35h-6q-8 -13 -32 -28t-75 -15q-52 0 -87.5 29t-35.5 76zM114 375
q0 -21 17.5 -35.5t49.5 -14.5t52 15t22 35v8q-2 21 -22 32t-50 11q-34 0 -51.5 -14t-17.5 -37z" />
    <glyph glyph-name="guillemotleft" unicode="&#xab;" horiz-adv-x="495" 
d="M32 219l127 189h100v-9l-123 -186v-8l123 -188v-9h-100l-127 189v22zM236 219l127 189h100v-9l-123 -186v-8l123 -188v-9h-100l-127 189v22z" />
    <glyph glyph-name="logicalnot" unicode="&#xac;" horiz-adv-x="558" 
d="M41 346h459v-346h-99v248h-360v98z" />
    <glyph glyph-name="registered" unicode="&#xae;" horiz-adv-x="535" 
d="M494 380q0 -48 -15.5 -90t-45 -74t-71.5 -50.5t-95 -18.5t-94.5 18.5t-70.5 50.5t-44.5 74.5t-15.5 89.5q0 48 15.5 90t44.5 74t70.5 50.5t94.5 18.5t95 -18.5t71.5 -50.5t45 -74t15.5 -90zM449 380q0 40 -13 75t-37 60.5t-57.5 40t-74.5 14.5t-74 -14t-56.5 -39
t-36.5 -60t-13 -77q0 -40 13 -75t36.5 -60.5t56.5 -40t74 -14.5t74.5 14.5t57.5 40t37 60t13 75.5zM275 485q40 0 64 -20t24 -54q0 -21 -9.5 -36.5t-25.5 -25.5l38 -55v-11h-55l-37 53h-43v-53h-53v202h97zM231 436v-53h43q15 0 24 6.5t9 19.5q0 27 -33 27h-43z" />
    <glyph glyph-name="macron" unicode="&#xaf;" horiz-adv-x="526" 
d="M121 741h295v-73h-295v73z" />
    <glyph glyph-name="degree" unicode="&#xb0;" horiz-adv-x="288" 
d="M144 673q53 0 84.5 -31.5t31.5 -76.5t-31.5 -76.5t-84.5 -31.5t-84.5 31.5t-31.5 76.5t31.5 76.5t84.5 31.5zM144 613q-23 0 -36 -14t-13 -34t13 -33.5t36 -13.5t36 13.5t13 33.5t-13 34t-36 14z" />
    <glyph glyph-name="plusminus" unicode="&#xb1;" horiz-adv-x="520" 
d="M212 185v151h-159v97h159v158h99v-158h155v-97h-155v-151h-99zM466 24h-413v98h413v-98z" />
    <glyph glyph-name="uni00B2" unicode="&#xb2;" horiz-adv-x="336" 
d="M48 404l124 109q15 13 21 24t6 23q0 17 -11.5 29t-34.5 12t-39.5 -11t-30.5 -22l-44 63q13 12 31 23q15 8 36.5 15.5t50.5 7.5q32 0 55.5 -9t39.5 -24t23.5 -35t7.5 -42q0 -28 -9 -50t-31 -41l-76 -65h123v-69h-242v62z" />
    <glyph glyph-name="uni00B3" unicode="&#xb3;" horiz-adv-x="322" 
d="M44 668h229v-52l-59 -75q73 -19 73 -92q0 -49 -33 -82t-102 -33q-29 0 -51 6.5t-37 15t-22.5 15.5l-7.5 7l42 58q8 -8 19 -14q9 -5 23 -9.5t31 -4.5q29 0 42 12t13 29t-12 28t-38 11h-43v39l57 71h-124v70z" />
    <glyph glyph-name="acute" unicode="&#xb4;" horiz-adv-x="279" 
d="M126 497h-79l50 145l137 -13z" />
    <glyph glyph-name="mu" unicode="&#xb5;" horiz-adv-x="517" 
d="M342 420h120v-420h-80l-21 57h-5q-8 -11 -18.5 -23t-26 -21.5t-36.5 -16t-49 -6.5q-15 0 -28 2t-26 5l2 -125h-120v548h120v-234q0 -41 20 -68t61 -27q22 0 38 8t27 20.5t16.5 27.5t5.5 30v243z" />
    <glyph glyph-name="paragraph" unicode="&#xb6;" horiz-adv-x="547" 
d="M361 122h-56q-59 0 -109.5 16t-87.5 46.5t-58 76t-21 105.5q0 58 20.5 102t57.5 73.5t87.5 44.5t109.5 15h178v-683h-121v204z" />
    <glyph glyph-name="periodcentered" unicode="&#xb7;" horiz-adv-x="225" 
d="M39 359q0 31 21.5 52.5t51.5 21.5q31 0 52 -21.5t21 -52.5t-21 -52t-52 -21q-30 0 -51.5 21t-21.5 52z" />
    <glyph glyph-name="cedilla" unicode="&#xb8;" horiz-adv-x="206" 
d="M51 -51l26 54h56l-13 -33q27 -1 45.5 -17.5t18.5 -47.5q0 -33 -23 -54t-65 -21q-22 0 -37.5 5t-26.5 11q-12 7 -21 16l27 42q10 -8 22.5 -14.5t32.5 -6.5q34 0 34 25q0 11 -8.5 17t-22.5 6q-11 0 -19 -2q-4 -1 -6 -2z" />
    <glyph glyph-name="uni00B9" unicode="&#xb9;" horiz-adv-x="220" 
d="M21 668h143v-326h-79v256h-64v70z" />
    <glyph glyph-name="ordmasculine" unicode="&#xba;" horiz-adv-x="391" 
d="M195 613q35 0 65.5 -12.5t52.5 -35t34.5 -55t12.5 -72.5q0 -38 -12.5 -69.5t-34.5 -53.5t-52.5 -34t-65.5 -12t-65 12t-52.5 34t-35 53.5t-12.5 69.5q0 40 12.5 72.5t35 55t52.5 35t65 12.5zM195 541q-38 0 -59.5 -28t-21.5 -73t21.5 -72t59.5 -27t59.5 27t21.5 72
t-21.5 73t-59.5 28z" />
    <glyph glyph-name="guillemotright" unicode="&#xbb;" horiz-adv-x="495" 
d="M259 197l-126 -189h-101v9l123 188v8l-123 186v9h101l126 -189v-22zM463 197l-127 -189h-100v9l123 188v8l-123 186v9h100l127 -189v-22z" />
    <glyph glyph-name="onequarter" unicode="&#xbc;" horiz-adv-x="650" 
d="M30 0l475 600h96l-475 -601zM317 124l179 202h61v-187h56v-65h-56v-74h-76v74h-164v50zM46 600h144v-326h-79v256h-65v70zM410 136l32 3h39v82h-1l-48 -61q-4 -5 -7.5 -9t-6.5 -7q-4 -4 -8 -7v-1z" />
    <glyph glyph-name="onehalf" unicode="&#xbd;" horiz-adv-x="704" 
d="M30 0l473 600h97l-475 -600h-95zM425 62l125 109q14 13 20 24t6 23q0 17 -11 29t-34 12t-39.5 -11t-30.5 -22l-44 63q13 12 31 23q15 8 36.5 15.5t50.5 7.5q32 0 55.5 -9t39.5 -24t23.5 -35t7.5 -42q0 -28 -9 -50t-31 -41l-76 -65h123v-69h-243v62zM50 600h143v-326h-79
v256h-64v70z" />
    <glyph glyph-name="threequarters" unicode="&#xbe;" horiz-adv-x="703" 
d="M92 0l474 600h96l-474 -600h-96zM377 120l180 201h60v-187h52v-65h-52v-69h-77v69h-163v51zM43 600h229v-52l-59 -75q73 -19 73 -92q0 -49 -33 -82t-102 -33q-29 0 -51 6.5t-37 15t-22.5 15.5l-7.5 7l42 58q8 -8 19 -14q9 -5 22.5 -9.5t30.5 -4.5q29 0 42.5 12t13.5 29
t-12 28t-38 11h-43v39l57 71h-124v70zM470 131l32 3h38v82h-1l-47 -61q-4 -5 -7.5 -9t-6.5 -7q-4 -4 -8 -7v-1z" />
    <glyph glyph-name="questiondown" unicode="&#xbf;" horiz-adv-x="435" 
d="M412 -131q-17 -17 -43 -29q-22 -11 -54 -20t-75 -9q-47 0 -85.5 11.5t-66 32.5t-43 51.5t-15.5 69.5q0 36 10.5 61.5t27 45t36 34.5t36.5 29t29 28.5t15 34.5l2 21h96v-32q0 -39 -18 -63.5t-39 -44.5t-39 -40.5t-18 -51.5q0 -32 22.5 -50.5t62.5 -18.5q20 0 38 5.5
t32 12.5q16 8 28 19zM303 362q0 -30 -20.5 -50.5t-49.5 -20.5t-49.5 20.5t-20.5 50.5q0 29 20.5 50t49.5 21t49.5 -21t20.5 -50z" />
    <glyph glyph-name="Agrave" unicode="&#xc0;" 
d="M600 0h-129l-43 116h-259l-43 -116h-129l238 600h127zM205 214h187l-94 252zM160 770l136 20l39 -155h-81z" />
    <glyph glyph-name="Aacute" unicode="&#xc1;" 
d="M600 0h-129l-43 116h-259l-43 -116h-129l238 600h127zM205 214h187l-94 252zM339 635h-79l50 145l137 -13z" />
    <glyph glyph-name="Acircumflex" unicode="&#xc2;" 
d="M600 0h-129l-43 116h-259l-43 -116h-129l238 600h127zM205 214h187l-94 252zM299 708l-46 -62h-85l85 131h93l85 -131h-86z" />
    <glyph glyph-name="Atilde" unicode="&#xc3;" 
d="M600 0h-129l-43 116h-259l-43 -116h-129l238 600h127zM205 214h187l-94 252zM376 649q-23 0 -41 6.5t-33.5 15t-29.5 15t-27 6.5q-16 0 -22.5 -8.5t-10.5 -22.5l-4 -16l-85 8l6 34q8 42 32 69t69 27q22 0 40 -7t33.5 -15t29 -15t27.5 -7q17 0 24 9t10 22l4 16l84 -8
l-5 -33q-7 -42 -31.5 -69t-69.5 -27z" />
    <glyph glyph-name="Adieresis" unicode="&#xc4;" 
d="M600 0h-129l-43 116h-259l-43 -116h-129l238 600h127zM205 214h187l-94 252zM151 706q0 25 18 43t41 18q24 0 42.5 -18t18.5 -43q0 -24 -18.5 -42t-42.5 -18q-23 0 -41 18t-18 42zM327 706q0 25 18 43t41 18q25 0 43 -18t18 -43q0 -24 -18 -42t-43 -18q-23 0 -41 18
t-18 42z" />
    <glyph glyph-name="Aring" unicode="&#xc5;" 
d="M600 0h-129l-43 116h-259l-43 -116h-129l238 600h127zM205 214h187l-94 252zM185 705q0 39 29 64.5t84 25.5t84 -25.5t29 -64.5t-29 -64.5t-84 -25.5t-84 25.5t-29 64.5zM345 705q0 36 -47 36q-46 0 -46 -36t46 -36q47 0 47 36z" />
    <glyph glyph-name="AE" unicode="&#xc6;" horiz-adv-x="894" 
d="M396 600h463v-106h-324v-144h262v-98h-262v-146h324v-106h-445v121h-204l-79 -121h-145zM275 221h139v206h-4z" />
    <glyph glyph-name="Ccedilla" unicode="&#xc7;" horiz-adv-x="556" 
d="M271 -51l19 41q-60 8 -107.5 35t-81 68.5t-51 94.5t-17.5 112q0 65 21 122t61 99.5t96.5 67t127.5 24.5q52 0 90.5 -11.5t63.5 -25.5q29 -17 49 -37l-70 -93q-15 14 -34 25q-17 10 -41.5 18t-56.5 8q-40 0 -73.5 -15t-57.5 -41t-37.5 -62t-13.5 -79t13.5 -79t37.5 -62.5
t57.5 -41.5t73.5 -15q32 0 56.5 8t41.5 18q19 11 34 26l70 -93q-20 -20 -48 -36q-24 -14 -60.5 -26t-87.5 -13l-6 -16q27 -1 45.5 -17.5t18.5 -47.5q0 -33 -23 -54t-65 -21q-22 0 -37.5 5t-26.5 11q-12 7 -21 16l27 42q10 -8 22.5 -14.5t32.5 -6.5q34 0 34 25q0 11 -8.5 17
t-22.5 6q-11 0 -19 -2q-4 -1 -6 -2z" />
    <glyph glyph-name="Egrave" unicode="&#xc8;" horiz-adv-x="537" 
d="M451 255h-262v-149h311v-106h-432v600h432v-106h-311v-141h262v-98zM164 770l136 20l39 -155h-81z" />
    <glyph glyph-name="Eacute" unicode="&#xc9;" horiz-adv-x="537" 
d="M330 635h-79l50 145l137 -13zM451 255h-262v-149h311v-106h-432v600h432v-106h-311v-141h262v-98z" />
    <glyph glyph-name="Ecircumflex" unicode="&#xca;" horiz-adv-x="537" 
d="M294 708l-46 -62h-85l85 131h93l85 -131h-86zM451 255h-262v-149h311v-106h-432v600h432v-106h-311v-141h262v-98z" />
    <glyph glyph-name="Edieresis" unicode="&#xcb;" horiz-adv-x="537" 
d="M146 706q0 25 18 43t41 18q24 0 42.5 -18t18.5 -43q0 -24 -18.5 -42t-42.5 -18q-23 0 -41 18t-18 42zM322 706q0 25 18 43t41 18q25 0 43 -18t18 -43q0 -24 -18 -42t-43 -18q-23 0 -41 18t-18 42zM451 255h-262v-149h311v-106h-432v600h432v-106h-311v-141h262v-98z" />
    <glyph glyph-name="Igrave" unicode="&#xcc;" horiz-adv-x="258" 
d="M189 0h-121v600h121v-600zM-10 770l136 20l39 -155h-81z" />
    <glyph glyph-name="Iacute" unicode="&#xcd;" horiz-adv-x="258" 
d="M189 0h-121v600h121v-600zM169 635h-79l50 145l137 -13z" />
    <glyph glyph-name="Icircumflex" unicode="&#xce;" horiz-adv-x="258" 
d="M189 0h-121v600h121v-600zM131 708l-46 -62h-85l85 131h93l85 -131h-86z" />
    <glyph glyph-name="Idieresis" unicode="&#xcf;" horiz-adv-x="258" 
d="M189 0h-121v600h121v-600zM-18 706q0 25 18 43t41 18q24 0 42.5 -18t18.5 -43q0 -24 -18.5 -42t-42.5 -18q-23 0 -41 18t-18 42zM158 706q0 25 18 43t41 18q25 0 43 -18t18 -43q0 -24 -18 -42t-43 -18q-23 0 -41 18t-18 42z" />
    <glyph glyph-name="Eth" unicode="&#xd0;" horiz-adv-x="636" 
d="M18 358h52v242h221q71 0 129 -22t98.5 -62t62.5 -95t22 -121t-22 -121t-62.5 -95t-98.5 -62t-129 -22h-221v250h-52v108zM191 494v-136h134v-108h-134v-144h92q41 0 76.5 13t62 38t41.5 61t15 82q0 47 -15 83.5t-41.5 61t-62 37t-76.5 12.5h-92z" />
    <glyph glyph-name="Ntilde" unicode="&#xd1;" horiz-adv-x="667" 
d="M599 0h-93l-317 389v-389h-121v600h93l317 -385v385h121v-600zM411 649q-23 0 -41 6.5t-33.5 15t-29.5 15t-27 6.5q-16 0 -22.5 -8.5t-10.5 -22.5l-4 -16l-85 8l6 34q8 42 32 69t69 27q22 0 40 -7t33.5 -15t29 -15t27.5 -7q17 0 24 9t10 22l4 16l84 -8l-5 -33
q-7 -42 -31.5 -69t-69.5 -27z" />
    <glyph glyph-name="Ograve" unicode="&#xd2;" horiz-adv-x="674" 
d="M336 -14q-68 0 -124 24.5t-96 67.5t-62 100t-22 122t22 122t62 99.5t96 67t124 24.5q69 0 125 -24.5t96 -67t62 -99.5t22 -122t-22 -122t-62 -100t-96 -67.5t-125 -24.5zM336 103q39 0 72 14.5t57 41t37.5 62.5t13.5 79t-13.5 79t-37.5 62t-57 41t-72 15t-71.5 -15
t-56 -41t-37 -62t-13.5 -79t13.5 -79t37 -62.5t56 -41t71.5 -14.5zM201 781l136 20l39 -155h-81z" />
    <glyph glyph-name="Oacute" unicode="&#xd3;" horiz-adv-x="674" 
d="M372 646h-79l50 145l137 -13zM336 -14q-68 0 -124 24.5t-96 67.5t-62 100t-22 122t22 122t62 99.5t96 67t124 24.5q69 0 125 -24.5t96 -67t62 -99.5t22 -122t-22 -122t-62 -100t-96 -67.5t-125 -24.5zM336 103q39 0 72 14.5t57 41t37.5 62.5t13.5 79t-13.5 79t-37.5 62
t-57 41t-72 15t-71.5 -15t-56 -41t-37 -62t-13.5 -79t13.5 -79t37 -62.5t56 -41t71.5 -14.5z" />
    <glyph glyph-name="Ocircumflex" unicode="&#xd4;" horiz-adv-x="674" 
d="M338 708l-46 -62h-85l85 131h93l85 -131h-86zM336 -14q-68 0 -124 24.5t-96 67.5t-62 100t-22 122t22 122t62 99.5t96 67t124 24.5q69 0 125 -24.5t96 -67t62 -99.5t22 -122t-22 -122t-62 -100t-96 -67.5t-125 -24.5zM336 103q39 0 72 14.5t57 41t37.5 62.5t13.5 79
t-13.5 79t-37.5 62t-57 41t-72 15t-71.5 -15t-56 -41t-37 -62t-13.5 -79t13.5 -79t37 -62.5t56 -41t71.5 -14.5z" />
    <glyph glyph-name="Otilde" unicode="&#xd5;" horiz-adv-x="674" 
d="M336 -14q-68 0 -124 24.5t-96 67.5t-62 100t-22 122t22 122t62 99.5t96 67t124 24.5q69 0 125 -24.5t96 -67t62 -99.5t22 -122t-22 -122t-62 -100t-96 -67.5t-125 -24.5zM336 103q39 0 72 14.5t57 41t37.5 62.5t13.5 79t-13.5 79t-37.5 62t-57 41t-72 15t-71.5 -15
t-56 -41t-37 -62t-13.5 -79t13.5 -79t37 -62.5t56 -41t71.5 -14.5zM411 649q-23 0 -41 6.5t-33.5 15t-29.5 15t-27 6.5q-16 0 -22.5 -8.5t-10.5 -22.5l-4 -16l-85 8l6 34q8 42 32 69t69 27q22 0 40 -7t33.5 -15t29 -15t27.5 -7q17 0 24 9t10 22l4 16l84 -8l-5 -33
q-7 -42 -31.5 -69t-69.5 -27z" />
    <glyph glyph-name="Odieresis" unicode="&#xd6;" horiz-adv-x="674" 
d="M189 706q0 25 18 43t41 18q24 0 42.5 -18t18.5 -43q0 -24 -18.5 -42t-42.5 -18q-23 0 -41 18t-18 42zM365 706q0 25 18 43t41 18q25 0 43 -18t18 -43q0 -24 -18 -42t-43 -18q-23 0 -41 18t-18 42zM336 -14q-68 0 -124 24.5t-96 67.5t-62 100t-22 122t22 122t62 99.5
t96 67t124 24.5q69 0 125 -24.5t96 -67t62 -99.5t22 -122t-22 -122t-62 -100t-96 -67.5t-125 -24.5zM336 103q39 0 72 14.5t57 41t37.5 62.5t13.5 79t-13.5 79t-37.5 62t-57 41t-72 15t-71.5 -15t-56 -41t-37 -62t-13.5 -79t13.5 -79t37 -62.5t56 -41t71.5 -14.5z" />
    <glyph glyph-name="multiply" unicode="&#xd7;" horiz-adv-x="508" 
d="M45 158l141 143l-141 144l68 68l141 -143l141 143l68 -68l-142 -144l142 -143l-68 -68l-141 143l-141 -143z" />
    <glyph glyph-name="Oslash" unicode="&#xd8;" horiz-adv-x="688" 
d="M344 -14q-55 0 -101.5 15.5t-83.5 44.5l-45 -46h-125l108 111q-28 40 -42.5 87.5t-14.5 101.5q0 65 22 122t62 99.5t96 67t124 24.5q54 0 100 -15.5t83 -43.5l45 46h125l-107 -110q29 -39 44 -87.5t15 -102.5q0 -65 -22 -122t-62 -100t-96 -67.5t-125 -24.5zM344 103
q39 0 72 14.5t57 41t37.5 62.5t13.5 79q0 55 -22 99l-258 -265q43 -31 100 -31zM166 300q0 -54 20 -97l257 264q-44 30 -99 30q-39 0 -71.5 -15t-56 -41t-37 -62t-13.5 -79z" />
    <glyph glyph-name="Ugrave" unicode="&#xd9;" horiz-adv-x="637" 
d="M318 -14q-59 0 -107 20.5t-81.5 56.5t-51.5 85.5t-18 107.5v344h121v-344q0 -33 8.5 -61t26 -48.5t43 -32t59.5 -11.5q35 0 61 11.5t43 32t25 48.5t8 61v344h121v-344q0 -58 -17.5 -107.5t-50.5 -85.5t-81 -56.5t-109 -20.5zM181 770l136 20l39 -155h-81z" />
    <glyph glyph-name="Uacute" unicode="&#xda;" horiz-adv-x="637" 
d="M354 635h-79l50 145l137 -13zM318 -14q-59 0 -107 20.5t-81.5 56.5t-51.5 85.5t-18 107.5v344h121v-344q0 -33 8.5 -61t26 -48.5t43 -32t59.5 -11.5q35 0 61 11.5t43 32t25 48.5t8 61v344h121v-344q0 -58 -17.5 -107.5t-50.5 -85.5t-81 -56.5t-109 -20.5z" />
    <glyph glyph-name="Ucircumflex" unicode="&#xdb;" horiz-adv-x="637" 
d="M320 697l-46 -62h-85l85 131h93l85 -131h-86zM318 -14q-59 0 -107 20.5t-81.5 56.5t-51.5 85.5t-18 107.5v344h121v-344q0 -33 8.5 -61t26 -48.5t43 -32t59.5 -11.5q35 0 61 11.5t43 32t25 48.5t8 61v344h121v-344q0 -58 -17.5 -107.5t-50.5 -85.5t-81 -56.5t-109 -20.5z
" />
    <glyph glyph-name="Udieresis" unicode="&#xdc;" horiz-adv-x="637" 
d="M172 706q0 25 18 43t41 18q24 0 42.5 -18t18.5 -43q0 -24 -18.5 -42t-42.5 -18q-23 0 -41 18t-18 42zM348 706q0 25 18 43t41 18q25 0 43 -18t18 -43q0 -24 -18 -42t-43 -18q-23 0 -41 18t-18 42zM318 -14q-59 0 -107 20.5t-81.5 56.5t-51.5 85.5t-18 107.5v344h121v-344
q0 -33 8.5 -61t26 -48.5t43 -32t59.5 -11.5q35 0 61 11.5t43 32t25 48.5t8 61v344h121v-344q0 -58 -17.5 -107.5t-50.5 -85.5t-81 -56.5t-109 -20.5z" />
    <glyph glyph-name="Yacute" unicode="&#xdd;" horiz-adv-x="542" 
d="M413 600h133l-214 -367v-233h-121v231l-214 369h132l119 -209l24 -55l24 55zM310 668h-79l50 145l137 -13z" />
    <glyph glyph-name="Thorn" unicode="&#xde;" horiz-adv-x="586" 
d="M189 509h142q109 0 172 -54t63 -152q0 -53 -18 -93t-50.5 -67t-77 -40.5t-97.5 -13.5h-134v-89h-121v600h121v-91zM441 298q0 52 -33.5 78.5t-88.5 26.5h-130v-211h131q55 0 88 25.5t33 80.5z" />
    <glyph glyph-name="germandbls" unicode="&#xdf;" horiz-adv-x="499" 
d="M238 335q49 9 67 33.5t18 57.5q0 34 -19 54.5t-54 20.5q-34 0 -54.5 -23t-20.5 -64v-414h-120v405q0 94 51 146t147 52q44 0 79.5 -14t61 -37.5t39.5 -55t14 -67.5q0 -44 -18 -75.5t-49 -48.5q42 -16 64 -52.5t22 -85.5q0 -39 -13 -71t-37 -54.5t-57.5 -35t-75.5 -12.5
q-37 0 -50 3q-8 1 -12 3l3 79q7 -1 13 -1q5 -1 11.5 -1h11.5q45 0 69.5 23.5t24.5 63.5q0 41 -25 63.5t-69 22.5h-22v85z" />
    <glyph glyph-name="agrave" unicode="&#xe0;" horiz-adv-x="467" 
d="M417 0h-82l-16 53h-5q-17 -28 -50.5 -45.5t-84.5 -17.5q-73 0 -113.5 38t-40.5 95q0 64 47.5 101t143.5 37q27 0 48.5 -3t37.5 -8v13q0 39 -26 55t-74 16q-23 0 -43 -5t-35 -10q-18 -7 -32 -15l-38 88q18 10 44 19q22 7 53 13t73 6q96 0 144.5 -47t48.5 -124v-259z
M210 72q38 0 64 21t28 55v34q-8 5 -25.5 9t-46.5 4q-45 0 -68.5 -17t-23.5 -47q0 -26 19.5 -42.5t52.5 -16.5zM94 632l136 20l39 -155h-81z" />
    <glyph glyph-name="aacute" unicode="&#xe1;" horiz-adv-x="467" 
d="M417 0h-82l-16 53h-5q-17 -28 -50.5 -45.5t-84.5 -17.5q-73 0 -113.5 38t-40.5 95q0 64 47.5 101t143.5 37q27 0 48.5 -3t37.5 -8v13q0 39 -26 55t-74 16q-23 0 -43 -5t-35 -10q-18 -7 -32 -15l-38 88q18 10 44 19q22 7 53 13t73 6q96 0 144.5 -47t48.5 -124v-259z
M210 72q38 0 64 21t28 55v34q-8 5 -25.5 9t-46.5 4q-45 0 -68.5 -17t-23.5 -47q0 -26 19.5 -42.5t52.5 -16.5zM263 497h-79l50 145l137 -13z" />
    <glyph glyph-name="acircumflex" unicode="&#xe2;" horiz-adv-x="467" 
d="M417 0h-82l-16 53h-5q-17 -28 -50.5 -45.5t-84.5 -17.5q-73 0 -113.5 38t-40.5 95q0 64 47.5 101t143.5 37q27 0 48.5 -3t37.5 -8v13q0 39 -26 55t-74 16q-23 0 -43 -5t-35 -10q-18 -7 -32 -15l-38 88q18 10 44 19q22 7 53 13t73 6q96 0 144.5 -47t48.5 -124v-259z
M210 72q38 0 64 21t28 55v34q-8 5 -25.5 9t-46.5 4q-45 0 -68.5 -17t-23.5 -47q0 -26 19.5 -42.5t52.5 -16.5zM221 559l-46 -62h-85l85 131h93l85 -131h-86z" />
    <glyph glyph-name="atilde" unicode="&#xe3;" horiz-adv-x="467" 
d="M417 0h-82l-16 53h-5q-17 -28 -50.5 -45.5t-84.5 -17.5q-73 0 -113.5 38t-40.5 95q0 64 47.5 101t143.5 37q27 0 48.5 -3t37.5 -8v13q0 39 -26 55t-74 16q-23 0 -43 -5t-35 -10q-18 -7 -32 -15l-38 88q18 10 44 19q22 7 53 13t73 6q96 0 144.5 -47t48.5 -124v-259z
M210 72q38 0 64 21t28 55v34q-8 5 -25.5 9t-46.5 4q-45 0 -68.5 -17t-23.5 -47q0 -26 19.5 -42.5t52.5 -16.5zM294 480q-23 0 -41 6.5t-33.5 15t-29.5 15t-27 6.5q-16 0 -22.5 -8.5t-10.5 -22.5l-4 -16l-85 8l6 34q8 42 32 69t69 27q22 0 40 -7t33.5 -15t29 -15t27.5 -7
q17 0 24 9t10 22l4 16l84 -8l-5 -33q-7 -42 -31.5 -69t-69.5 -27z" />
    <glyph glyph-name="adieresis" unicode="&#xe4;" horiz-adv-x="467" 
d="M417 0h-82l-16 53h-5q-17 -28 -50.5 -45.5t-84.5 -17.5q-73 0 -113.5 38t-40.5 95q0 64 47.5 101t143.5 37q27 0 48.5 -3t37.5 -8v13q0 39 -26 55t-74 16q-23 0 -43 -5t-35 -10q-18 -7 -32 -15l-38 88q18 10 44 19q22 7 53 13t73 6q96 0 144.5 -47t48.5 -124v-259z
M210 72q38 0 64 21t28 55v34q-8 5 -25.5 9t-46.5 4q-45 0 -68.5 -17t-23.5 -47q0 -26 19.5 -42.5t52.5 -16.5zM75 535q0 25 18 43t41 18q24 0 42.5 -18t18.5 -43q0 -24 -18.5 -42t-42.5 -18q-23 0 -41 18t-18 42zM251 535q0 25 18 43t41 18q25 0 43 -18t18 -43
q0 -24 -18 -42t-43 -18q-23 0 -41 18t-18 42z" />
    <glyph glyph-name="aring" unicode="&#xe5;" horiz-adv-x="467" 
d="M417 0h-82l-16 53h-5q-17 -28 -50.5 -45.5t-84.5 -17.5q-73 0 -113.5 38t-40.5 95q0 64 47.5 101t143.5 37q27 0 48.5 -3t37.5 -8v13q0 39 -26 55t-74 16q-23 0 -43 -5t-35 -10q-18 -7 -32 -15l-38 88q18 10 44 19q22 7 53 13t73 6q96 0 144.5 -47t48.5 -124v-259z
M210 72q38 0 64 21t28 55v34q-8 5 -25.5 9t-46.5 4q-45 0 -68.5 -17t-23.5 -47q0 -26 19.5 -42.5t52.5 -16.5zM110 584q0 39 29 64.5t84 25.5t84 -25.5t29 -64.5t-29 -64.5t-84 -25.5t-84 25.5t-29 64.5zM270 584q0 36 -47 36q-46 0 -46 -36t46 -36q47 0 47 36z" />
    <glyph glyph-name="ae" unicode="&#xe6;" horiz-adv-x="733" 
d="M686 41q-16 -15 -39 -26q-20 -10 -49.5 -17.5t-69.5 -7.5q-53 0 -93.5 15.5t-69.5 44.5q-27 -28 -69 -44t-100 -16q-44 0 -76.5 10.5t-54 28t-32 41t-10.5 49.5q0 63 44 100t144 37q29 0 51.5 -3.5t38.5 -8.5v15q0 39 -26.5 58t-72.5 19q-23 0 -42.5 -5.5t-34.5 -11.5
q-18 -8 -33 -17l-39 90q19 10 45 19q22 7 52 13t66 6q53 0 91 -14t63 -40q27 26 62.5 40t78.5 14q93 0 144.5 -57t51.5 -152q0 -5 -0.5 -10.5t-0.5 -10.5v-12h-287q6 -54 37.5 -78.5t79.5 -24.5q25 0 45 5t34 12q17 8 29 18zM210 72q46 0 68.5 26t22.5 62v17q-11 4 -30.5 8
t-48.5 4q-44 0 -64 -16t-20 -45q0 -26 18 -41t54 -15zM508 340q-33 0 -55.5 -19.5t-30.5 -61.5h168q-4 38 -24.5 59.5t-57.5 21.5z" />
    <glyph glyph-name="ccedilla" unicode="&#xe7;" horiz-adv-x="408" 
d="M178 -53l23 48q-39 7 -71 26.5t-54 47.5t-34 64t-12 77q0 48 16 88t45 69.5t69.5 46t90.5 16.5q34 0 58.5 -6t41.5 -13q19 -9 32 -19l-31 -86q-12 7 -26 12q-12 5 -28.5 9t-35.5 4q-48 0 -79.5 -32t-31.5 -89t31.5 -89t79.5 -32q19 0 35.5 3.5t28.5 8.5q14 5 26 13
l30 -85q-13 -11 -31 -19q-16 -8 -40 -13.5t-56 -6.5l-8 -22q27 -1 45.5 -17.5t18.5 -47.5q0 -33 -23 -54t-65 -21q-22 0 -37.5 5t-26.5 11q-12 7 -21 16l27 42q10 -8 22.5 -14.5t32.5 -6.5q34 0 34 25q0 11 -8.5 17t-22.5 6q-11 0 -19 -2q-4 -1 -6 -2z" />
    <glyph glyph-name="egrave" unicode="&#xe8;" horiz-adv-x="460" 
d="M413 39q-16 -15 -39 -26q-20 -10 -49.5 -17.5t-69.5 -7.5q-53 0 -94.5 17t-70.5 46.5t-44.5 70t-15.5 88.5q0 47 15 87.5t42.5 70t65.5 46t85 16.5q93 0 144.5 -57t51.5 -152q0 -5 -0.5 -10.5t-0.5 -10.5v-12h-287q5 -54 35.5 -79.5t81.5 -25.5q25 0 45 5t34 12
q17 8 29 18zM235 340q-33 0 -55.5 -19.5t-30.5 -61.5h168q-4 38 -24.5 59.5t-57.5 21.5zM92 632l136 20l39 -155h-81z" />
    <glyph glyph-name="eacute" unicode="&#xe9;" horiz-adv-x="460" 
d="M279 497h-79l50 145l137 -13zM413 39q-16 -15 -39 -26q-20 -10 -49.5 -17.5t-69.5 -7.5q-53 0 -94.5 17t-70.5 46.5t-44.5 70t-15.5 88.5q0 47 15 87.5t42.5 70t65.5 46t85 16.5q93 0 144.5 -57t51.5 -152q0 -5 -0.5 -10.5t-0.5 -10.5v-12h-287q5 -54 35.5 -79.5
t81.5 -25.5q25 0 45 5t34 12q17 8 29 18zM235 340q-33 0 -55.5 -19.5t-30.5 -61.5h168q-4 38 -24.5 59.5t-57.5 21.5z" />
    <glyph glyph-name="ecircumflex" unicode="&#xea;" horiz-adv-x="460" 
d="M237 559l-46 -62h-85l85 131h93l85 -131h-86zM413 39q-16 -15 -39 -26q-20 -10 -49.5 -17.5t-69.5 -7.5q-53 0 -94.5 17t-70.5 46.5t-44.5 70t-15.5 88.5q0 47 15 87.5t42.5 70t65.5 46t85 16.5q93 0 144.5 -57t51.5 -152q0 -5 -0.5 -10.5t-0.5 -10.5v-12h-287
q5 -54 35.5 -79.5t81.5 -25.5q25 0 45 5t34 12q17 8 29 18zM235 340q-33 0 -55.5 -19.5t-30.5 -61.5h168q-4 38 -24.5 59.5t-57.5 21.5z" />
    <glyph glyph-name="edieresis" unicode="&#xeb;" horiz-adv-x="460" 
d="M90 535q0 25 18 43t41 18q24 0 42.5 -18t18.5 -43q0 -24 -18.5 -42t-42.5 -18q-23 0 -41 18t-18 42zM266 535q0 25 18 43t41 18q25 0 43 -18t18 -43q0 -24 -18 -42t-43 -18q-23 0 -41 18t-18 42zM413 39q-16 -15 -39 -26q-20 -10 -49.5 -17.5t-69.5 -7.5q-53 0 -94.5 17
t-70.5 46.5t-44.5 70t-15.5 88.5q0 47 15 87.5t42.5 70t65.5 46t85 16.5q93 0 144.5 -57t51.5 -152q0 -5 -0.5 -10.5t-0.5 -10.5v-12h-287q5 -54 35.5 -79.5t81.5 -25.5q25 0 45 5t34 12q17 8 29 18zM235 340q-33 0 -55.5 -19.5t-30.5 -61.5h168q-4 38 -24.5 59.5
t-57.5 21.5z" />
    <glyph glyph-name="igrave" unicode="&#xec;" horiz-adv-x="231" 
d="M55 420h120v-420h-120v420zM-24 632l136 20l39 -155h-81z" />
    <glyph glyph-name="iacute" unicode="&#xed;" horiz-adv-x="231" 
d="M156 497h-79l50 145l137 -13zM55 420h120v-420h-120v420z" />
    <glyph glyph-name="icircumflex" unicode="&#xee;" horiz-adv-x="231" 
d="M118 570l-46 -62h-85l85 131h93l85 -131h-86zM55 420h120v-420h-120v420z" />
    <glyph glyph-name="idieresis" unicode="&#xef;" horiz-adv-x="231" 
d="M-28 567q0 25 18 43t41 18q24 0 42.5 -18t18.5 -43q0 -24 -18.5 -42t-42.5 -18q-23 0 -41 18t-18 42zM148 567q0 25 18 43t41 18q25 0 43 -18t18 -43q0 -24 -18 -42t-43 -18q-23 0 -41 18t-18 42zM55 420h120v-420h-120v420z" />
    <glyph glyph-name="eth" unicode="&#xf0;" horiz-adv-x="507" 
d="M253 -11q-50 0 -91 15.5t-70.5 44t-45.5 69t-16 91.5q0 48 16 88.5t45 70t70.5 45.5t91.5 16q6 0 12 -0.5t12 -0.5v3q-5 6 -10 13q-5 6 -10 13.5t-10 17.5l-28 47l-104 -64l-39 66l104 63l-76 130v11h115l51 -86l110 67l38 -65l-109 -67l111 -183q14 -25 24.5 -46.5
t17.5 -42t10.5 -41.5t4.5 -46v-9q0 -51 -16 -91.5t-45 -69t-70.5 -44t-92.5 -15.5zM356 210q0 57 -28.5 88.5t-74.5 31.5q-45 0 -73.5 -32.5t-28.5 -87.5q0 -56 28.5 -89t73.5 -33q47 0 75 33t28 89z" />
    <glyph glyph-name="ntilde" unicode="&#xf1;" horiz-adv-x="515" 
d="M175 0h-120v420h75l17 -59h7q24 35 54.5 52.5t81.5 17.5q81 0 128 -51t47 -136v-244h-120v234q0 38 -22 65t-63 27q-21 0 -36.5 -7.5t-26.5 -19.5t-16.5 -27.5t-5.5 -31.5v-240zM330 511q-23 0 -41 6.5t-33.5 15t-29.5 15t-27 6.5q-16 0 -22.5 -8.5t-10.5 -22.5l-4 -16
l-85 8l6 34q8 42 32 69t69 27q22 0 40 -7t33.5 -15t29 -15t27.5 -7q17 0 24 9t10 22l4 16l84 -8l-5 -33q-7 -42 -31.5 -69t-69.5 -27z" />
    <glyph glyph-name="ograve" unicode="&#xf2;" horiz-adv-x="498" 
d="M468 208q0 -50 -17.5 -90t-47 -68.5t-69.5 -44t-85 -15.5t-85 15.5t-70 44t-47.5 68.5t-17.5 90t17.5 91t47.5 70t70 45t85 16t85 -16t69.5 -45t47 -70t17.5 -91zM249 85q44 0 72.5 33.5t28.5 91.5q0 57 -28.5 91t-72.5 34q-45 0 -73.5 -34t-28.5 -91q0 -58 28.5 -91.5
t73.5 -33.5zM111 632l136 20l39 -155h-81z" />
    <glyph glyph-name="oacute" unicode="&#xf3;" horiz-adv-x="498" 
d="M286 497h-79l50 145l137 -13zM468 208q0 -50 -17.5 -90t-47 -68.5t-69.5 -44t-85 -15.5t-85 15.5t-70 44t-47.5 68.5t-17.5 90t17.5 91t47.5 70t70 45t85 16t85 -16t69.5 -45t47 -70t17.5 -91zM249 85q44 0 72.5 33.5t28.5 91.5q0 57 -28.5 91t-72.5 34q-45 0 -73.5 -34
t-28.5 -91q0 -58 28.5 -91.5t73.5 -33.5z" />
    <glyph glyph-name="ocircumflex" unicode="&#xf4;" horiz-adv-x="498" 
d="M250 570l-46 -62h-85l85 131h93l85 -131h-86zM468 208q0 -50 -17.5 -90t-47 -68.5t-69.5 -44t-85 -15.5t-85 15.5t-70 44t-47.5 68.5t-17.5 90t17.5 91t47.5 70t70 45t85 16t85 -16t69.5 -45t47 -70t17.5 -91zM249 85q44 0 72.5 33.5t28.5 91.5q0 57 -28.5 91t-72.5 34
q-45 0 -73.5 -34t-28.5 -91q0 -58 28.5 -91.5t73.5 -33.5z" />
    <glyph glyph-name="otilde" unicode="&#xf5;" horiz-adv-x="498" 
d="M468 208q0 -50 -17.5 -90t-47 -68.5t-69.5 -44t-85 -15.5t-85 15.5t-70 44t-47.5 68.5t-17.5 90t17.5 91t47.5 70t70 45t85 16t85 -16t69.5 -45t47 -70t17.5 -91zM249 85q44 0 72.5 33.5t28.5 91.5q0 57 -28.5 91t-72.5 34q-45 0 -73.5 -34t-28.5 -91q0 -58 28.5 -91.5
t73.5 -33.5zM320 512q-23 0 -41 6.5t-33.5 15t-29.5 15t-27 6.5q-16 0 -22.5 -8.5t-10.5 -22.5l-4 -16l-85 8l6 34q8 42 32 69t69 27q22 0 40 -7t33.5 -15t29 -15t27.5 -7q17 0 24 9t10 22l4 16l84 -8l-5 -33q-7 -42 -31.5 -69t-69.5 -27z" />
    <glyph glyph-name="odieresis" unicode="&#xf6;" horiz-adv-x="498" 
d="M102 568q0 25 18 43t41 18q24 0 42.5 -18t18.5 -43q0 -24 -18.5 -42t-42.5 -18q-23 0 -41 18t-18 42zM278 568q0 25 18 43t41 18q25 0 43 -18t18 -43q0 -24 -18 -42t-43 -18q-23 0 -41 18t-18 42zM468 208q0 -50 -17.5 -90t-47 -68.5t-69.5 -44t-85 -15.5t-85 15.5
t-70 44t-47.5 68.5t-17.5 90t17.5 91t47.5 70t70 45t85 16t85 -16t69.5 -45t47 -70t17.5 -91zM249 85q44 0 72.5 33.5t28.5 91.5q0 57 -28.5 91t-72.5 34q-45 0 -73.5 -34t-28.5 -91q0 -58 28.5 -91.5t73.5 -33.5z" />
    <glyph glyph-name="divide" unicode="&#xf7;" horiz-adv-x="485" 
d="M169 124q0 31 21 52.5t52 21.5t52.5 -21.5t21.5 -52.5t-21.5 -52t-52.5 -21t-52 21t-21 52zM169 473q0 31 21 52.5t52 21.5t52.5 -21.5t21.5 -52.5t-21.5 -52t-52.5 -21t-52 21t-21 52zM41 345h403v-98h-403v98z" />
    <glyph glyph-name="oslash" unicode="&#xf8;" horiz-adv-x="498" 
d="M468 208q0 -50 -17.5 -90t-47 -68.5t-69.5 -44t-85 -15.5q-74 0 -130 38l-27 -28h-80l64 67q-47 56 -47 141q0 50 17.5 91t47.5 70t70 45t85 16q71 0 125 -37l26 27h81l-64 -66q24 -28 37.5 -64.5t13.5 -81.5zM249 85q44 0 72.5 33.5t28.5 91.5q0 36 -12 63l-149 -168
q25 -20 60 -20zM147 210q0 -36 10 -60l148 166q-25 19 -56 19q-45 0 -73.5 -34t-28.5 -91z" />
    <glyph glyph-name="ugrave" unicode="&#xf9;" horiz-adv-x="513" 
d="M338 420h120v-420h-80l-21 57h-5q-8 -11 -18.5 -23t-26 -21.5t-36.5 -16t-49 -6.5q-81 0 -126.5 50.5t-45.5 135.5v244h120v-234q0 -41 20 -68t61 -27q22 0 38 8t27 20.5t16.5 27.5t5.5 30v243zM113 632l136 20l39 -155h-81z" />
    <glyph glyph-name="uacute" unicode="&#xfa;" horiz-adv-x="513" 
d="M287 497h-79l50 145l137 -13zM338 420h120v-420h-80l-21 57h-5q-8 -11 -18.5 -23t-26 -21.5t-36.5 -16t-49 -6.5q-81 0 -126.5 50.5t-45.5 135.5v244h120v-234q0 -41 20 -68t61 -27q22 0 38 8t27 20.5t16.5 27.5t5.5 30v243z" />
    <glyph glyph-name="ucircumflex" unicode="&#xfb;" horiz-adv-x="513" 
d="M248 559l-46 -62h-85l85 131h93l85 -131h-86zM338 420h120v-420h-80l-21 57h-5q-8 -11 -18.5 -23t-26 -21.5t-36.5 -16t-49 -6.5q-81 0 -126.5 50.5t-45.5 135.5v244h120v-234q0 -41 20 -68t61 -27q22 0 38 8t27 20.5t16.5 27.5t5.5 30v243z" />
    <glyph glyph-name="udieresis" unicode="&#xfc;" horiz-adv-x="513" 
d="M101 558q0 25 18 43t41 18q24 0 42.5 -18t18.5 -43q0 -24 -18.5 -42t-42.5 -18q-23 0 -41 18t-18 42zM277 558q0 25 18 43t41 18q25 0 43 -18t18 -43q0 -24 -18 -42t-43 -18q-23 0 -41 18t-18 42zM338 420h120v-420h-80l-21 57h-5q-8 -11 -18.5 -23t-26 -21.5t-36.5 -16
t-49 -6.5q-81 0 -126.5 50.5t-45.5 135.5v244h120v-234q0 -41 20 -68t61 -27q22 0 38 8t27 20.5t16.5 27.5t5.5 30v243z" />
    <glyph glyph-name="yacute" unicode="&#xfd;" horiz-adv-x="456" 
d="M208 -156h-124l90 190l-173 386h132l89 -244q3 -8 5.5 -17t2.5 -17h6q0 15 7 34l89 244h122zM265 497h-79l50 145l137 -13z" />
    <glyph glyph-name="thorn" unicode="&#xfe;" horiz-adv-x="521" 
d="M175 59v-215h-120v756h120v-235h4q9 18 26 32q14 12 37 22.5t56 10.5q42 0 77 -15.5t60.5 -44t40 -69t14.5 -90.5q0 -49 -14.5 -89.5t-40 -70t-61 -45.5t-76.5 -16q-35 0 -57.5 10.5t-36.5 23.5q-16 15 -24 35h-5zM169 209q0 -56 28 -88t73 -32q44 0 71.5 33t27.5 87
t-27.5 88t-71.5 34q-45 0 -73 -32.5t-28 -89.5z" />
    <glyph glyph-name="ydieresis" unicode="&#xff;" horiz-adv-x="456" 
d="M208 -156h-124l90 190l-173 386h132l89 -244q3 -8 5.5 -17t2.5 -17h6q0 15 7 34l89 244h122zM80 556q0 25 18 43t41 18q24 0 42.5 -18t18.5 -43q0 -24 -18.5 -42t-42.5 -18q-23 0 -41 18t-18 42zM256 556q0 25 18 43t41 18q25 0 43 -18t18 -43q0 -24 -18 -42t-43 -18
q-23 0 -41 18t-18 42z" />
    <glyph glyph-name="dotlessi" unicode="&#x131;" horiz-adv-x="231" 
d="M55 420h120v-420h-120v420z" />
    <glyph glyph-name="Lslash" unicode="&#x141;" horiz-adv-x="503" 
d="M15 328l58 35v237h121v-164l117 71v-127l-117 -71v-203h282v-106h-403v235l-58 -35v128z" />
    <glyph glyph-name="lslash" unicode="&#x142;" horiz-adv-x="248" 
d="M17 281l44 27v297h120v-223l57 36v-67l-57 -36v-315h-120v241l-44 -27v67z" />
    <glyph glyph-name="OE" unicode="&#x152;" horiz-adv-x="1017" 
d="M336 -14q-68 0 -124 24.5t-96 67.5t-62 100t-22 122t22 122t62 99.5t96 67t124 24.5q66 0 120 -22.5t94 -62.5v72h432v-106h-311v-141h262v-98h-262v-149h311v-106h-432v71q-40 -40 -94 -62.5t-120 -22.5zM336 103q39 0 72 14.5t57 41t37.5 62.5t13.5 79t-13.5 79
t-37.5 62t-57 41t-72 15t-71.5 -15t-56 -41t-37 -62t-13.5 -79t13.5 -79t37 -62.5t56 -41t71.5 -14.5z" />
    <glyph glyph-name="oe" unicode="&#x153;" horiz-adv-x="814" 
d="M768 39q-16 -15 -39 -26q-20 -10 -49.5 -17.5t-69.5 -7.5q-63 0 -109.5 23t-75.5 63q-30 -40 -76 -62t-100 -22q-45 0 -85 15.5t-70 44t-47.5 68.5t-17.5 90t17.5 91t47.5 70t70 45t85 16q54 0 99.5 -22.5t75.5 -62.5q28 39 71 62t98 23q93 0 144.5 -57t51.5 -152
q0 -5 -0.5 -10.5t-0.5 -10.5v-12h-287q5 -54 35.5 -79.5t81.5 -25.5q25 0 45 5t34 12q17 8 29 18zM249 85q44 0 72.5 33.5t28.5 91.5q0 57 -28.5 91t-72.5 34q-45 0 -73.5 -34t-28.5 -91q0 -58 28.5 -91.5t73.5 -33.5zM590 340q-33 0 -55.5 -19.5t-30.5 -61.5h168
q-4 38 -24.5 59.5t-57.5 21.5z" />
    <glyph glyph-name="Scaron" unicode="&#x160;" horiz-adv-x="525" 
d="M261 714l46 63h85l-72 -109h-118l-73 109h86zM96 156q23 -17 50 -29q23 -11 53 -20t65 -9q48 0 70 18.5t22 48.5q0 15 -5 26.5t-18.5 21.5t-37 19.5t-59.5 20.5q-98 28 -148 69t-50 113q0 79 56.5 128.5t168.5 49.5q59 0 100 -10t67 -21q31 -14 50 -31l-65 -99
q-19 14 -42 25q-20 9 -47.5 17t-62.5 8q-45 0 -67 -16t-22 -44q0 -27 25.5 -43t89.5 -35q105 -29 155.5 -72t50.5 -116q0 -39 -14 -73.5t-42 -60t-70.5 -40.5t-100.5 -15q-60 0 -104.5 12t-74.5 26q-35 17 -59 39z" />
    <glyph glyph-name="scaron" unicode="&#x161;" horiz-adv-x="424" 
d="M210 543l46 63h85l-72 -109h-118l-73 109h86zM69 119q19 -12 41 -21q19 -8 43 -14t52 -6q35 0 49.5 10t14.5 26q0 17 -17.5 26.5t-43.5 17t-56.5 16t-56.5 23.5t-43.5 40t-17.5 65q0 54 42 91t126 37q45 0 79 -6t57 -13q27 -8 47 -18l-37 -89q-18 10 -38 18
q-18 7 -41.5 13t-52.5 6q-61 0 -61 -35q0 -16 17.5 -25t44.5 -15.5t57.5 -14.5t57.5 -23.5t44.5 -40.5t17.5 -66q0 -27 -10 -51t-32 -42t-56.5 -28t-83.5 -10q-48 0 -82 7t-57 16q-26 11 -43 24z" />
    <glyph glyph-name="Ydieresis" unicode="&#x178;" horiz-adv-x="542" 
d="M413 600h133l-214 -367v-233h-121v231l-214 369h132l119 -209l24 -55l24 55zM126 706q0 25 18 43t41 18q24 0 42.5 -18t18.5 -43q0 -24 -18.5 -42t-42.5 -18q-23 0 -41 18t-18 42zM302 706q0 25 18 43t41 18q25 0 43 -18t18 -43q0 -24 -18 -42t-43 -18q-23 0 -41 18
t-18 42z" />
    <glyph glyph-name="Zcaron" unicode="&#x17d;" horiz-adv-x="544" 
d="M267 714l46 63h85l-72 -109h-118l-73 109h86zM30 89l319 405h-308v106h468v-93l-313 -401h311v-106h-477v89z" />
    <glyph glyph-name="zcaron" unicode="&#x17e;" horiz-adv-x="428" 
d="M211 543l46 63h85l-72 -109h-118l-73 109h86zM33 0v66l206 257h-204v97h360v-60l-202 -263h202v-97h-362z" />
    <glyph glyph-name="florin" unicode="&#x192;" horiz-adv-x="549" 
d="M214 327h-67v93h86l4 18q36 168 196 168q24 0 43.5 -3.5t33.5 -7.5q16 -4 28 -10l-48 -99q-7 3 -16 6q-8 2 -19 4.5t-24 2.5q-33 0 -50.5 -15t-23.5 -45l-4 -19h126v-93h-145l-40 -203q-7 -32 -18 -56.5t-28.5 -41t-43 -25t-61.5 -8.5q-24 0 -42.5 4t-32.5 9
q-16 6 -27 14l37 94q7 -4 15 -7q16 -7 36 -7q21 0 31.5 10t15.5 33z" />
    <glyph glyph-name="circumflex" unicode="&#x2c6;" horiz-adv-x="371" 
d="M192 708l-46 -62h-85l85 131h93l85 -131h-86z" />
    <glyph glyph-name="caron" unicode="&#x2c7;" horiz-adv-x="325" 
d="M160 714l46 63h85l-72 -109h-118l-73 109h86z" />
    <glyph glyph-name="breve" unicode="&#x2d8;" horiz-adv-x="396" 
d="M356 818q0 -30 -9.5 -58t-29 -50t-49 -35t-68.5 -13t-68.5 13t-49 35t-29.5 50t-10 58h94q0 -35 17 -54t45 -19t45 19.5t17 53.5h95z" />
    <glyph glyph-name="dotaccent" unicode="&#x2d9;" horiz-adv-x="331" 
d="M166 550q-31 0 -52 21t-21 52t21 52.5t52 21.5t52.5 -21.5t21.5 -52.5t-21.5 -52t-52.5 -21z" />
    <glyph glyph-name="ring" unicode="&#x2da;" horiz-adv-x="288" 
d="M31 705q0 39 29 64.5t84 25.5t84 -25.5t29 -64.5t-29 -64.5t-84 -25.5t-84 25.5t-29 64.5zM191 705q0 36 -47 36q-46 0 -46 -36t46 -36q47 0 47 36z" />
    <glyph glyph-name="ogonek" unicode="&#x2db;" horiz-adv-x="197" 
d="M185 -107q-8 -10 -19 -17q-10 -6 -24 -11t-34 -5q-41 0 -63 21t-22 55q0 19 8.5 35t22 28t30.5 20.5t35 14.5l11 -34q-11 -8 -25.5 -20t-14.5 -30q0 -29 30 -29q11 0 19.5 5t13.5 9z" />
    <glyph glyph-name="tilde" unicode="&#x2dc;" horiz-adv-x="485" 
d="M313 649q-23 0 -41 6.5t-33.5 15t-29.5 15t-27 6.5q-16 0 -22.5 -8.5t-10.5 -22.5l-4 -16l-85 8l6 34q8 42 32 69t69 27q22 0 40 -7t33.5 -15t29 -15t27.5 -7q17 0 24 9t10 22l4 16l84 -8l-5 -33q-7 -42 -31.5 -69t-69.5 -27z" />
    <glyph glyph-name="hungarumlaut" unicode="&#x2dd;" horiz-adv-x="395" 
d="M277 420h-78l34 157h123zM107 420h-78l34 157h123z" />
    <glyph glyph-name="pi" unicode="&#x3c0;" horiz-adv-x="557" 
d="M532 420v-95h-67v-325h-121v325h-131v-325h-120v325h-68v95h507z" />
    <glyph glyph-name="endash" unicode="&#x2013;" horiz-adv-x="453" 
d="M58 336h335v-97h-335v97z" />
    <glyph glyph-name="emdash" unicode="&#x2014;" horiz-adv-x="706" 
d="M58 336h588v-97h-588v97z" />
    <glyph glyph-name="quoteleft" unicode="&#x2018;" horiz-adv-x="224" 
d="M191 537q-60 -14 -69 -52q23 -5 38 -23.5t15 -43.5q0 -29 -20 -49.5t-49 -20.5t-49.5 20.5t-20.5 49.5v6q0 62 34 112t102 64l19 -63v0z" />
    <glyph glyph-name="quoteright" unicode="&#x2019;" horiz-adv-x="225" 
d="M41 411q58 12 68 52q-23 5 -38 23.5t-15 43.5q0 29 20.5 49.5t49.5 20.5t49.5 -20.5t20.5 -49.5v-6q0 -31 -8.5 -59.5t-26 -52.5t-43 -40.5t-59.5 -23.5l-18 63v0z" />
    <glyph glyph-name="quotesinglbase" unicode="&#x201a;" horiz-adv-x="221" 
d="M179 53q0 -31 -8.5 -59.5t-26 -52.5t-43 -40.5t-59.5 -23.5l-18 63q59 13 69 52q-23 5 -38.5 23t-15.5 44q0 29 20.5 49.5t49.5 20.5t49.5 -20.5t20.5 -49.5v-6z" />
    <glyph glyph-name="quotedblleft" unicode="&#x201c;" horiz-adv-x="406" 
d="M36 424q0 62 34 112t102 64l19 -63q-60 -14 -69 -52q23 -5 38 -23.5t15 -43.5q0 -29 -20 -49.5t-49 -20.5t-49.5 20.5t-20.5 49.5v6zM372 537q-59 -14 -68 -52q23 -5 38 -23.5t15 -43.5q0 -29 -20 -49.5t-49 -20.5t-49.5 20.5t-20.5 49.5v6q0 62 34 112t102 64z" />
    <glyph glyph-name="quotedblright" unicode="&#x201d;" horiz-adv-x="397" 
d="M368 524q0 -31 -8.5 -59.5t-26 -52.5t-43 -40.5t-59.5 -23.5l-18 63q58 12 68 52q-23 5 -38 23t-15 44q0 29 20 49.5t49 20.5t50 -20.5t21 -49.5v-6zM41 411q58 12 68 52q-23 5 -38 23t-15 44q0 29 20 49.5t49 20.5t49.5 -20.5t20.5 -49.5v-6q0 -62 -34 -112t-102 -64z
" />
    <glyph glyph-name="quotedblbase" unicode="&#x201e;" horiz-adv-x="400" 
d="M176 53q0 -31 -8.5 -59.5t-26 -52.5t-43 -40.5t-59.5 -23.5l-18 63q59 13 69 52q-23 5 -38.5 23t-15.5 44q0 29 20.5 49.5t49.5 20.5t49.5 -20.5t20.5 -49.5v-6zM358 53q0 -31 -8.5 -59.5t-26 -52.5t-43 -40.5t-59.5 -23.5l-18 63q59 13 69 52q-23 5 -38.5 23t-15.5 44
q0 29 20.5 49.5t49.5 20.5t49.5 -20.5t20.5 -49.5v-6z" />
    <glyph glyph-name="dagger" unicode="&#x2020;" horiz-adv-x="425" 
d="M32 503h132v132h99v-132h130v-97h-130l-9 -250h-81l-9 250h-132v97z" />
    <glyph glyph-name="daggerdbl" unicode="&#x2021;" horiz-adv-x="454" 
d="M49 536h132v132h99v-132h130v-97h-130l-6 -105l6 -105h130v-97h-130v-132h-99v132h-132v97h132l6 105l-6 105h-132v97z" />
    <glyph glyph-name="bullet" unicode="&#x2022;" horiz-adv-x="325" 
d="M162 317q19 0 36.5 -7.5t30 -20t20 -30t7.5 -36.5q0 -39 -27.5 -66t-66.5 -27t-66.5 27t-27.5 66q0 19 7.5 36.5t20 30t29.5 20t37 7.5z" />
    <glyph glyph-name="ellipsis" unicode="&#x2026;" horiz-adv-x="751" 
d="M42 67q0 32 21.5 54t53.5 22t54.5 -22t22.5 -54t-22.5 -54t-54.5 -22t-53.5 22t-21.5 54zM299 67q0 32 22 54t54 22t54 -22t22 -54t-22 -54t-54 -22t-54 22t-22 54zM557 67q0 32 21.5 54t53.5 22t54.5 -22t22.5 -54t-22.5 -54t-54.5 -22t-53.5 22t-21.5 54z" />
    <glyph glyph-name="perthousand" unicode="&#x2030;" horiz-adv-x="982" 
d="M172 613q33 0 58.5 -12t43 -32.5t26.5 -47t9 -56.5q0 -29 -9 -56t-26.5 -47.5t-43 -33t-58.5 -12.5q-32 0 -57.5 12.5t-43 33t-27 47.5t-9.5 56q0 30 9.5 56.5t27 47t43 32.5t57.5 12zM172 387q26 0 39.5 20t13.5 58t-13.5 58t-39.5 20t-39.5 -20t-13.5 -58t13.5 -58
t39.5 -20zM623 600l-477 -600h-102l478 600h101zM500 289q33 0 58.5 -12t43 -32.5t27 -47.5t9.5 -57q0 -29 -9.5 -55.5t-27 -47t-43 -33t-58.5 -12.5q-32 0 -57.5 12.5t-43 33t-27 47t-9.5 55.5q0 30 9.5 57t27 47.5t43 32.5t57.5 12zM500 219q-53 0 -53 -79q0 -37 13.5 -57
t39.5 -20t39.5 20t13.5 57q0 79 -53 79zM816 219q-53 0 -53 -79q0 -37 13.5 -57t39.5 -20t39.5 20t13.5 57q0 79 -53 79zM816 289q33 0 58.5 -12t43 -32.5t26.5 -47.5t9 -57q0 -29 -9 -55.5t-26.5 -47t-43 -33t-58.5 -12.5q-32 0 -57.5 12.5t-43 33t-27 47t-9.5 55.5
q0 30 9.5 57t27 47.5t43 32.5t57.5 12z" />
    <glyph glyph-name="guilsinglleft" unicode="&#x2039;" horiz-adv-x="291" 
d="M32 219l127 189h100v-9l-123 -186v-8l123 -188v-9h-100l-127 189v22z" />
    <glyph glyph-name="guilsinglright" unicode="&#x203a;" horiz-adv-x="291" 
d="M259 197l-126 -189h-101v9l123 188v8l-123 186v9h101l126 -189v-22z" />
    <glyph glyph-name="fraction" unicode="&#x2044;" horiz-adv-x="571" 
d="M-11 0l498 632h96l-498 -632h-96z" />
    <glyph glyph-name="Euro" unicode="&#x20ac;" horiz-adv-x="589" 
d="M405 191h-160q17 -41 49.5 -64t83.5 -23q26 0 45.5 7.5t33.5 16.5q16 11 29 25l68 -92q-17 -21 -43 -37q-22 -14 -55.5 -25t-78.5 -11q-54 0 -97.5 15.5t-76 42.5t-54.5 64t-34 81h-80v83h66v27v15t1 15h-67v82h81q12 43 34 79.5t54.5 63.5t75.5 42t97 15
q45 0 78.5 -11.5t55.5 -25.5q26 -16 43 -36l-68 -92q-13 13 -29 24q-14 9 -33.5 17t-45.5 8q-51 0 -83 -22.5t-49 -61.5h159v-82h-177q-1 -8 -1 -15v-15v-13.5t1 -13.5h177v-83z" />
    <glyph glyph-name="trademark" unicode="&#x2122;" horiz-adv-x="727" 
d="M341 281v319h53l108 -141l111 141h51v-319h-76v172l-70 -90h-30l-70 90v-172h-77zM289 532h-90v-251h-76v251h-91v68h257v-68z" />
    <glyph glyph-name="Omega" unicode="&#x2126;" horiz-adv-x="721" 
d="M47 105h108q-54 37 -80.5 93.5t-26.5 118.5q0 60 21 113.5t61 94t98 64.5t132 24q75 0 133.5 -24t98 -64.5t60.5 -94t21 -113.5q0 -62 -27 -118.5t-81 -93.5h109v-105h-278v109q34 4 62.5 21.5t49.5 43.5t32.5 59.5t11.5 71.5q0 41 -14 76t-39.5 60.5t-61 40t-77.5 14.5
t-77 -14.5t-60 -40t-39 -60.5t-14 -76q0 -38 11.5 -71.5t32 -59.5t49 -43.5t62.5 -21.5v-109h-278v105z" />
    <glyph glyph-name="partialdiff" unicode="&#x2202;" horiz-adv-x="508" 
d="M253 -11q-50 0 -91 15.5t-70.5 44t-45.5 69t-16 91.5q0 48 16 88.5t45 70t70.5 45.5t91.5 16q6 0 12 -0.5t12 -0.5v3q-5 6 -10 13q-5 6 -10 13.5t-10 17.5l-143 242v11h115l201 -334q14 -25 24.5 -46.5t17.5 -42t10.5 -41.5t4.5 -46v-9q0 -51 -16 -91.5t-45 -69
t-70.5 -44t-92.5 -15.5zM356 210q0 57 -28.5 88.5t-74.5 31.5q-45 0 -73.5 -32.5t-28.5 -87.5q0 -56 28.5 -89t73.5 -33q47 0 75 33t28 89z" />
    <glyph glyph-name="Delta" unicode="&#x2206;" horiz-adv-x="658" 
d="M26 21l292 579h21l294 -579v-21h-607v21zM458 105q-28 60 -59.5 130.5t-67.5 151.5h-7l-127 -282h261z" />
    <glyph glyph-name="product" unicode="&#x220f;" horiz-adv-x="636" 
d="M577 0h-121v495h-275v-495h-121v600h517v-600z" />
    <glyph glyph-name="summation" unicode="&#x2211;" horiz-adv-x="454" 
d="M411 600v-105h-213l131 -166v-61l-126 -163h208v-105h-365v105l155 186v13l-155 191v105h365z" />
    <glyph glyph-name="minus" unicode="&#x2212;" horiz-adv-x="543" 
d="M55 347h434v-97h-434v97z" />
    <glyph glyph-name="radical" unicode="&#x221a;" horiz-adv-x="625" 
d="M233 -192h-23l-210 399h135l46 -100q1 -3 6.5 -16t11.5 -28t11 -28t5 -15h15q0 2 5 15t11 28t11 28t7 16l238 493h137z" />
    <glyph glyph-name="infinity" unicode="&#x221e;" horiz-adv-x="759" 
d="M209 113q-38 0 -69 14t-53 37.5t-34.5 54.5t-12.5 66q0 34 12.5 65t34.5 55t53 38t69 14q28 0 52 -8.5t45 -23.5t39.5 -34t35.5 -40q16 21 34 40t39 34t44.5 23.5t51.5 8.5q33 0 64 -12.5t54.5 -35t37.5 -54t14 -70.5q0 -34 -12 -65t-34.5 -55t-53.5 -38t-70 -14
q-56 0 -97.5 31.5t-74.5 73.5q-32 -42 -72.5 -73.5t-96.5 -31.5zM543 364q-33 0 -59 -22.5t-49 -54.5q25 -33 50.5 -57t57.5 -24q36 0 56.5 23.5t20.5 55.5q0 33 -22 56t-55 23zM217 206q32 0 58 22.5t50 54.5q-25 33 -50.5 57t-57.5 24q-18 0 -32.5 -7t-24.5 -18.5
t-15 -25.5t-5 -28q0 -31 20 -55t57 -24z" />
    <glyph glyph-name="integral" unicode="&#x222b;" horiz-adv-x="333" 
d="M107 517q0 59 29.5 95.5t95.5 36.5q20 0 36.5 -3.5t27.5 -8.5q13 -5 23 -11l-31 -89q-5 1 -10 3t-10 3t-11 1q-14 0 -21.5 -9t-7.5 -32v-485q0 -59 -30 -95.5t-95 -36.5q-21 0 -37 3t-27 8q-13 5 -23 12l31 89q4 -2 9 -4q9 -3 22 -3q14 0 21.5 9t7.5 32v485z" />
    <glyph glyph-name="approxequal" unicode="&#x2248;" horiz-adv-x="530" 
d="M348 155q-26 0 -46.5 6t-38 13t-32 13t-29.5 6q-17 0 -25 -8t-12 -19l-4 -15l-104 8l8 44q8 41 37 66.5t82 25.5q26 0 46.5 -6t37.5 -13.5t32 -13.5t30 -6q17 0 25 8t12 19l4 15l104 -7l-8 -45q-8 -41 -37 -66t-82 -25zM348 351q-26 0 -46.5 6t-38 13.5t-32 13.5t-29.5 6
q-17 0 -25 -8t-12 -19l-4 -15l-104 7l8 45q8 41 37 66t82 25q26 0 46.5 -6t37.5 -13t32 -13t30 -6q17 0 25 8t12 19l4 15l104 -8l-8 -44q-8 -41 -37 -66.5t-82 -25.5z" />
    <glyph glyph-name="notequal" unicode="&#x2260;" horiz-adv-x="487" 
d="M49 434h200l42 111l81 -28l-31 -83h97v-98h-134l-38 -102h172v-98h-209l-41 -109l-81 28l30 81h-88v98h125l38 102h-163v98z" />
    <glyph glyph-name="lessequal" unicode="&#x2264;" horiz-adv-x="391" 
d="M250 193l-198 188v21l198 192l70 -72l-138 -131l137 -126zM349 50h-303v98h303v-98z" />
    <glyph glyph-name="greaterequal" unicode="&#x2265;" horiz-adv-x="391" 
d="M72 265l136 126l-137 131l70 72l198 -192v-21l-197 -188zM42 148h302v-98h-302v98z" />
    <glyph glyph-name="lozenge" unicode="&#x25ca;" horiz-adv-x="495" 
d="M464 300l-175 -300h-83l-175 300l175 300h83zM239 158h16l75 142l-75 142h-16l-75 -142z" />
    </font>
</defs>
</svg>
