<?xml version="1.0" encoding="UTF-8"?>
<svg width="917px" height="178px" viewBox="0 0 917 178" version="1.1" xmlns="http://www.w3.org/2000/svg" xmlns:xlink="http://www.w3.org/1999/xlink">
    <!-- Generator: Sketch 53.1 (72631) - https://sketchapp.com -->
    <title>Export/Flat_wordmark_alt_light</title>
    <desc>Created with Sketch.</desc>
    <defs>
        <path d="M325,94.4117981 C323.706351,108.117981 318.6507,118.811117 309.835312,126.48667 C301.018791,134.162223 289.295525,138 274.659851,138 C264.433004,138 255.426174,135.571185 247.639361,130.720363 C239.851415,125.868406 233.841953,118.971072 229.609842,110.031764 C225.378863,101.090187 223.17445,90.7056154 223,78.8837209 L223,66.8837209 C223,54.7646058 225.143243,44.0884855 229.435392,34.8553602 C233.725276,25.6211004 239.882001,18.5025525 247.903302,13.5019853 C255.925735,8.50255247 265.197639,6 275.717879,6 C289.882312,6 301.284997,9.83777652 309.92367,17.5167328 C318.564608,25.1922859 323.588541,36.0589904 325,50.1191151 L302.783681,50.1191151 C301.725653,40.8859898 299.036405,34.2200794 294.718201,30.1304594 C290.396599,26.0453772 284.063159,24.0011344 275.717879,24.0011344 C266.021179,24.0011344 258.570805,27.5473625 253.371289,34.6409529 C248.168375,41.7390811 245.508579,52.1429382 245.390769,65.8615995 L245.390769,77.255814 C245.390769,91.1514464 247.874982,101.749291 252.841143,109.049348 C257.80617,116.350539 265.079829,119.998866 274.659851,119.998866 C283.417467,119.998866 290.000122,118.031764 294.408949,114.087351 C298.81551,110.146341 301.60671,103.588202 302.783681,94.4117981 L325,94.4117981 Z M359.449565,50.6476713 C366.451977,42.4991462 375.307635,38.4282988 386.018807,38.4282988 C406.376159,38.4282988 416.705114,50.0853115 417,73.4027522 L417,136 L395.550435,136 L395.550435,74.1973415 C395.550435,67.586768 394.12364,62.9080256 391.270049,60.1656678 C388.41419,57.4198949 384.22227,56.04587 378.690886,56.04587 C370.099492,56.04587 363.686852,59.8844879 359.449565,67.5571701 L359.449565,136 L338,136 L338,0 L359.449565,0 L359.449565,50.6476713 Z M468.542615,120.793805 C472.778832,120.793805 476.764392,119.767128 480.503831,117.705834 C484.238734,115.649077 487.049268,112.883289 488.932031,109.413008 L488.932031,91.4104301 L477.368918,91.4104301 C469.423884,91.4104301 463.451216,92.7944584 459.450912,95.5579772 C455.449473,98.3226305 453.448754,102.235347 453.448754,107.293857 C453.448754,111.410774 454.815458,114.692736 457.55227,117.132937 C460.289081,119.574272 463.95253,120.793805 468.542615,120.793805 Z M492.10891,136.234797 C491.168663,134.414005 490.345238,131.441748 489.639769,127.323696 C482.811917,134.442367 474.455172,138 464.570666,138 C454.978782,138 447.150571,135.267111 441.09057,129.793393 C435.0283,124.321943 432,117.561759 432,109.499227 C432,99.3243494 435.779136,91.5125305 443.341946,86.0728454 C450.902487,80.6354292 461.714764,77.9104816 475.782179,77.9104816 L488.932031,77.9104816 L488.932031,71.6483207 C488.932031,66.7055244 487.548314,62.7485647 484.783148,59.780845 C482.016847,56.8085874 477.810119,55.3247276 472.160696,55.3247276 C467.276854,55.3247276 463.275416,56.5442607 460.156381,58.9855959 C457.036211,61.4246622 455.477828,64.5296504 455.477828,68.2926192 L434.030208,68.2926192 C434.030208,63.057135 435.764392,58.1608512 439.237296,53.6014988 C442.709065,49.0455499 447.430717,45.4720341 453.403386,42.8832205 C459.377189,40.2955413 466.041716,39 473.398102,39 C484.577858,39 493.492628,41.8077624 500.142411,47.4266905 C506.792193,53.0444842 510.206119,60.9425212 510.381919,71.1162639 L510.381919,114.177696 C510.381919,122.763209 511.587568,129.618687 514,134.735054 L514,136.234797 L492.10891,136.234797 Z M558.467149,17 L558.467149,40.3158267 L575.465964,40.3158267 L575.465964,56.2715199 L558.467149,56.2715199 L558.467149,109.810849 C558.467149,113.47496 559.195588,116.121325 560.647892,117.744247 C562.101339,119.371728 564.697189,120.184329 568.435442,120.184329 C570.927229,120.184329 573.449892,119.885729 576,119.298788 L576,135.96223 C571.074746,137.320743 566.329029,138 561.759419,138 C545.148266,138 536.84269,128.867645 536.84269,110.609773 L536.84269,56.2715199 L521,56.2715199 L521,40.3158267 L536.84269,40.3158267 L536.84269,17 L558.467149,17 Z M630.980511,7 L668.088553,105.876421 L705.108042,7 L734,7 L734,136 L711.734721,136 L711.734721,93.475006 L713.942857,36.5950356 L675.951561,136 L659.958751,136 L622.056008,36.6816075 L624.264144,93.475006 L624.264144,136 L602,136 L602,7 L630.980511,7 Z M787.54211,120.793805 C791.779402,120.793805 795.764907,119.767128 799.50316,117.705834 C803.239146,115.649077 806.048507,112.883289 807.932378,109.413008 L807.932378,91.4104301 L796.36829,91.4104301 C788.424501,91.4104301 782.451915,92.7944584 778.451666,95.5579772 C774.450283,98.3226305 772.449591,102.235347 772.449591,107.293857 C772.449591,111.410774 773.816277,114.692736 776.553051,117.132937 C779.28869,119.574272 782.952088,120.793805 787.54211,120.793805 Z M811.108079,136.234797 C810.168979,134.414005 809.344431,131.441748 808.640106,127.323696 C801.812349,134.442367 793.455719,138 783.57135,138 C773.979599,138 766.151496,135.267111 760.091578,129.793393 C754.029392,124.321943 751,117.561759 751,109.499227 C751,99.3243494 754.779084,91.5125305 762.341789,86.0728454 C769.90336,80.6354292 780.714353,77.9104816 794.781574,77.9104816 L807.932378,77.9104816 L807.932378,71.6483207 C807.932378,66.7055244 806.54868,62.7485647 803.783552,59.780845 C801.016155,56.8085874 796.81062,55.3247276 791.160141,55.3247276 C786.276366,55.3247276 782.276117,56.5442607 779.155991,58.9855959 C776.036999,61.4246622 774.478637,64.5296504 774.478637,68.2926192 L753.031314,68.2926192 C753.031314,63.057135 754.765474,58.1608512 758.237196,53.6014988 C761.710051,49.0455499 766.431638,45.4720341 772.404224,42.8832205 C778.37681,40.2955413 785.041245,39 792.39753,39 C803.577131,39 812.492911,41.8077624 819.141468,47.4266905 C825.792293,53.0444842 829.205037,60.9425212 829.381969,71.1162639 L829.381969,114.177696 C829.381969,122.763209 830.586467,129.618687 833,134.735054 L833,136.234797 L811.108079,136.234797 Z M851.308724,136 L851.308724,40.4652299 L872.516331,40.4652299 L872.516331,136 L851.308724,136 Z M850,15.5666592 C850,12.2461687 851.031727,9.48647208 853.097425,7.29211029 C855.163123,5.0977485 858.117004,4 861.955703,4 C865.797766,4 868.762862,5.0977485 870.858838,7.29211029 C872.952572,9.48647208 874,12.2461687 874,15.5666592 C874,18.829254 872.952572,21.5435422 870.858838,23.7095237 C868.762862,25.87437 865.797766,26.9562256 861.955703,26.9562256 C858.117004,26.9562256 855.163123,25.87437 853.097425,23.7095237 C851.031727,21.5435422 850,18.829254 850,15.5666592 Z M896,136 L896,0 L917,0 L917,136 L896,136 Z M0,10 L168,10 L168,136 L142.578947,136 L100.578947,178 L100.578947,136.004002 L0,136.004002 L0,10 Z M118.242194,119 L152,118.986762 L152,49.0047279 L84.5070963,76.8235556 L17,49 L17,119 L118.241248,119 L118.242194,119 Z" id="path-1"></path>
    </defs>
    <g id="Export/Flat_wordmark_alt_light" stroke="none" stroke-width="1" fill="none" fill-rule="evenodd">
        <mask id="mask-2" fill="white">
            <use xlink:href="#path-1"></use>
        </mask>
        <use id="Mask" fill="#FFFFFF" xlink:href="#path-1"></use>
        <rect id="Rectangle" fill="#FFFFFF" mask="url(#mask-2)" x="0" y="0" width="917" height="178"></rect>
    </g>
</svg>