<?xml version="1.0" encoding="UTF-8"?>
<svg width="918px" height="247px" viewBox="0 0 918 247" version="1.1" xmlns="http://www.w3.org/2000/svg" xmlns:xlink="http://www.w3.org/1999/xlink">
    <!-- Generator: Sketch 53.1 (72631) - https://sketchapp.com -->
    <title>Export/Gradient_wordmark_dark</title>
    <desc>Created with Sketch.</desc>
    <defs>
        <path d="M123.5722,-0.0003 C55.3252,-0.0003 0.0002,55.2927 0.0002,123.4997 C0.0002,191.7067 55.3252,246.9997 123.5722,246.9997 C191.8192,246.9997 247.1452,191.7067 247.1452,123.4997 C247.1452,55.2927 191.8192,-0.0003 123.5722,-0.0003 L123.5722,-0.0003 Z" id="path-1"></path>
        <linearGradient x1="5.38136152%" y1="10.2278352%" x2="94.6162716%" y2="89.7703564%" id="linearGradient-3">
            <stop stop-color="#000000" offset="0%"></stop>
            <stop stop-color="#000000" offset="50.2152423%"></stop>
            <stop stop-color="#FFFFFF" stop-opacity="0" offset="100%"></stop>
        </linearGradient>
        <linearGradient x1="21.1345291%" y1="99.2653261%" x2="78.9013453%" y2="0.787636652%" id="linearGradient-4">
            <stop stop-color="#FFFFFF" offset="0%"></stop>
            <stop stop-color="#4A6E80" offset="100%"></stop>
        </linearGradient>
        <linearGradient x1="39.9443768%" y1="77.6877465%" x2="60.0483338%" y2="22.3068732%" id="linearGradient-5">
            <stop stop-color="#FFFFFF" offset="0%"></stop>
            <stop stop-color="#FFFFFF" offset="15%"></stop>
            <stop stop-color="#4A6E80" offset="70%"></stop>
            <stop stop-color="#4A6E80" offset="100%"></stop>
        </linearGradient>
        <linearGradient x1="49.9966357%" y1="-0.00840712925%" x2="49.9966357%" y2="100.001401%" id="linearGradient-6">
            <stop stop-color="#4A6E80" offset="0%"></stop>
            <stop stop-color="#FFFFFF" offset="100%"></stop>
        </linearGradient>
    </defs>
    <g id="Export/Gradient_wordmark_dark" stroke="none" stroke-width="1" fill="none" fill-rule="evenodd">
        <path d="M396.5031,149.0195 C395.3611,161.1015 390.8981,170.5275 383.1161,177.2935 C375.3331,184.0595 364.9841,187.4425 352.0641,187.4425 C343.0361,187.4425 335.0851,185.3015 328.2111,181.0255 C321.3361,176.7485 316.0311,170.6685 312.2951,162.7885 C308.5601,154.9065 306.6141,145.7525 306.4601,135.3315 L306.4601,124.7535 C306.4601,114.0705 308.3521,104.6595 312.1411,96.5205 C315.9281,88.3805 321.3631,82.1055 328.4441,77.6975 C335.5261,73.2905 343.7111,71.0845 352.9981,71.0845 C365.5021,71.0845 375.5681,74.4675 383.1941,81.2365 C390.8221,88.0025 395.2571,97.5815 396.5031,109.9755 L376.8911,109.9755 C375.9571,101.8365 373.5831,95.9605 369.7711,92.3555 C365.9561,88.7545 360.3651,86.9525 352.9981,86.9525 C344.4381,86.9525 337.8611,90.0785 333.2711,96.3315 C328.6781,102.5885 326.3301,111.7595 326.2261,123.8525 L326.2261,133.8965 C326.2261,146.1455 328.4191,155.4875 332.8031,161.9225 C337.1861,168.3585 343.6071,171.5745 352.0641,171.5745 C359.7951,171.5745 365.6061,169.8405 369.4981,166.3635 C373.3881,162.8895 375.8521,157.1085 376.8911,149.0195 L396.5031,149.0195 Z M426.1203,110.9097 C432.2943,103.7517 440.1023,100.1757 449.5463,100.1757 C467.4953,100.1757 476.6023,110.4157 476.8623,130.8987 L476.8623,185.8867 L457.9503,185.8867 L457.9503,131.5967 C457.9503,125.7897 456.6923,121.6797 454.1763,119.2707 C451.6583,116.8587 447.9623,115.6517 443.0853,115.6517 C435.5103,115.6517 429.8563,119.0237 426.1203,125.7637 L426.1203,185.8867 L407.2083,185.8867 L407.2083,66.4187 L426.1203,66.4187 L426.1203,110.9097 Z M522.3137,172.2754 C526.0487,172.2754 529.5627,171.3704 532.8597,169.5534 C536.1527,167.7404 538.6307,165.3024 540.2907,162.2434 L540.2907,146.3744 L530.0957,146.3744 C523.0907,146.3744 517.8247,147.5944 514.2977,150.0304 C510.7697,152.4674 509.0057,155.9164 509.0057,160.3754 C509.0057,164.0044 510.2107,166.8974 512.6237,169.0484 C515.0367,171.2004 518.2667,172.2754 522.3137,172.2754 Z M543.0917,185.8864 C542.2627,184.2814 541.5367,181.6614 540.9147,178.0314 C534.8947,184.3064 527.5267,187.4424 518.8117,187.4424 C510.3547,187.4424 503.4527,185.0334 498.1097,180.2084 C492.7647,175.3854 490.0947,169.4264 490.0947,162.3194 C490.0947,153.3504 493.4267,146.4644 500.0947,141.6694 C506.7607,136.8764 516.2937,134.4744 528.6967,134.4744 L540.2907,134.4744 L540.2907,128.9544 C540.2907,124.5974 539.0707,121.1094 536.6327,118.4934 C534.1937,115.8734 530.4847,114.5654 525.5037,114.5654 C521.1977,114.5654 517.6697,115.6404 514.9197,117.7924 C512.1687,119.9424 510.7947,122.6794 510.7947,125.9964 L491.8847,125.9964 C491.8847,121.3814 493.4137,117.0654 496.4757,113.0464 C499.5367,109.0304 503.6997,105.8804 508.9657,103.5984 C514.2327,101.3174 520.1087,100.1754 526.5947,100.1754 C536.4517,100.1754 544.3117,102.6504 550.1747,107.6034 C556.0377,112.5554 559.0477,119.5174 559.2027,128.4854 L559.2027,166.4434 C559.2027,174.0114 560.2657,180.0544 562.3927,184.5644 L562.3927,185.8864 L543.0917,185.8864 Z M601.1125,81.2734 L601.1125,101.7314 L615.9775,101.7314 L615.9775,115.7314 L601.1125,115.7314 L601.1125,162.7084 C601.1125,165.9234 601.7495,168.2454 603.0195,169.6694 C604.2905,171.0974 606.5605,171.8104 609.8295,171.8104 C612.0085,171.8104 614.2145,171.5484 616.4445,171.0334 L616.4445,185.6544 C612.1375,186.8464 607.9875,187.4424 603.9915,187.4424 C589.4655,187.4424 582.2025,179.4294 582.2025,163.4094 L582.2025,115.7314 L568.3485,115.7314 L568.3485,101.7314 L582.2025,101.7314 L582.2025,81.2734 L601.1125,81.2734 Z M665.7394,72.6396 L698.4254,159.4416 L731.0334,72.6396 L756.4824,72.6396 L756.4824,185.8866 L736.8704,185.8866 L736.8704,148.5546 L738.8154,98.6206 L705.3514,185.8866 L691.2644,185.8866 L657.8784,98.6966 L659.8234,148.5546 L659.8234,185.8866 L640.2124,185.8866 L640.2124,72.6396 L665.7394,72.6396 Z M802.675,172.2754 C806.411,172.2754 809.925,171.3704 813.221,169.5534 C816.515,167.7404 818.992,165.3024 820.653,162.2434 L820.653,146.3744 L810.457,146.3744 C803.453,146.3744 798.187,147.5944 794.66,150.0304 C791.132,152.4674 789.368,155.9164 789.368,160.3754 C789.368,164.0044 790.573,166.8974 792.986,169.0484 C795.398,171.2004 798.628,172.2754 802.675,172.2754 Z M823.453,185.8864 C822.625,184.2814 821.898,181.6614 821.277,178.0314 C815.257,184.3064 807.889,187.4424 799.174,187.4424 C790.717,187.4424 783.815,185.0334 778.472,180.2084 C773.127,175.3854 770.456,169.4264 770.456,162.3194 C770.456,153.3504 773.788,146.4644 780.456,141.6694 C787.123,136.8764 796.655,134.4744 809.058,134.4744 L820.653,134.4744 L820.653,128.9544 C820.653,124.5974 819.433,121.1094 816.995,118.4934 C814.555,115.8734 810.847,114.5654 805.865,114.5654 C801.559,114.5654 798.032,115.6404 795.281,117.7924 C792.531,119.9424 791.157,122.6794 791.157,125.9964 L772.247,125.9964 C772.247,121.3814 773.776,117.0654 776.837,113.0464 C779.899,109.0304 784.062,105.8804 789.328,103.5984 C794.594,101.3174 800.47,100.1754 806.956,100.1754 C816.813,100.1754 824.674,102.6504 830.536,107.6034 C836.4,112.5554 839.409,119.5174 839.565,128.4854 L839.565,166.4434 C839.565,174.0114 840.627,180.0544 842.755,184.5644 L842.755,185.8864 L823.453,185.8864 Z M858.984,185.887 L858.984,101.731 L877.895,101.731 L877.895,185.887 L858.984,185.887 Z M857.817,79.798 C857.817,76.873 858.737,74.442 860.579,72.509 C862.421,70.576 865.055,69.609 868.478,69.609 C871.904,69.609 874.548,70.576 876.417,72.509 C878.284,74.442 879.218,76.873 879.218,79.798 C879.218,82.672 878.284,85.063 876.417,86.971 C874.548,88.878 871.904,89.831 868.478,89.831 C865.055,89.831 862.421,88.878 860.579,86.971 C858.737,85.063 857.817,82.672 857.817,79.798 Z M898.092,185.887 L898.092,66.419 L917.004,66.419 L917.004,185.887 L898.092,185.887 Z" id="Combined-Shape" fill="#1C1D1E"></path>
        <mask id="mask-2" fill="white">
            <use xlink:href="#path-1"></use>
        </mask>
        <use id="Mask" fill="#004472" xlink:href="#path-1"></use>
        <polygon id="Shadow" fill-opacity="0.7" fill="url(#linearGradient-3)" opacity="0.2" mask="url(#mask-2)" points="152.150801 262.306569 59.3142 168 59.3142 72.3065693 187.8302 72.6397 272.353076 157.23824 272.353076 261.252839"></polygon>
        <g id="Gradient-Logo" mask="url(#mask-2)">
            <g transform="translate(59.314200, 72.639700)" id="Logo">
                <g>
                    <path d="M0,0 L129,0 L129,95.9851135 L109.369565,95.9922877 L77.1195652,128 L77.1195652,96.003049 L0,96.003049 L0,0 Z M90.3788816,82.5263158 L116.269737,82.5162827 L116.269737,29.4772674 L64.5054426,50.5610106 L12.7302632,29.4736842 L12.7302632,82.5263158 L90.3781559,82.5263158 L90.3788816,82.5263158 Z" fill="#FFFFFF"></path>
                    <polygon id="Tail" fill="url(#linearGradient-4)" opacity="0.4" points="77.1195652 96 77.1195652 128 109.369565 96"></polygon>
                    <polygon id="Tail_Shadow" fill="#4A6E80" opacity="0.2" points="77.1195652 96 77.1195652 128 109.369565 96"></polygon>
                    <path d="M0,0 L129,0 L129,96 L109.480263,96 L77.2302632,96 L0,96 L0,0 Z M89.9605263,82.5263158 L116.269737,82.5263158 L116.269737,29.4736842 L64.5,50.5263158 L12.7302632,29.4736842 L12.7302632,82.5263158 L89.9605263,82.5263158 L89.9605263,82.5263158 Z" id="Body_Shadow" fill="url(#linearGradient-5)" opacity="0.5"></path>
                    <polygon id="Top" fill="#FFFFFF" points="0 24.4210526 64.5 50.5263158 129 24.4210526 129 0 0 0"></polygon>
                    <polygon id="Top_Shadow" fill="url(#linearGradient-6)" opacity="0.2" points="0 24.4210526 64.5 50.5263158 129 24.4210526 129 0 0 0"></polygon>
                </g>
            </g>
        </g>
    </g>
</svg>