<svg xmlns="http://www.w3.org/2000/svg" width="27" height="27"><path fill="#222" d="M8.29 11.2v9.604c0 .428-.319.807-.793.948-.671.2-1.481.305-2.344.305-2.48 0-5.147-.862-5.147-2.755V7.012c-.056-.843.291-2.334 1.96-3.141.775-.375 4.842-2.59 6.884-3.71.364-.2.83-.214 1.211-.04.382.178.62.516.62.884V2.46c0 .555-.532 1.005-1.187 1.005-.51 0-.945-.273-1.112-.656-1.846 1.004-4.564 2.48-5.24 2.806-.607.295-.738.835-.764 1.129 0 .33.084.588.236.73.42.389 1.824.147 3.355-.632 1.471-.748 8.725-4.84 8.798-4.88a1.365 1.365 0 011.217-.05c.386.175.627.516.627.887v.114c0 .336-.198.65-.527.836 0 0-5.036 2.848-5.482 3.09C8.895 7.77 8.29 8.911 8.29 11.2zM26.1 6.35v13.046c0 .344-.21.666-.555.85 0 0-6.915 4.55-8.318 5.272-.738.381-1.677.582-2.715.582-2.466 0-5.018-1.13-5.018-3.02V10.61c0-.004.004-.008.004-.013.024-.735.227-1.785 1.84-2.794.969-.605 6.733-3.935 6.978-4.076a1.375 1.375 0 011.221-.058c.39.174.632.515.632.888v1.455c0 .555-.53 1.005-1.186 1.005-.49 0-.91-.251-1.09-.611-1.84 1.066-4.541 2.637-5.146 3.014-.764.478-.866.793-.88 1.198.003.3.1.53.294.68.605.47 2.233.273 3.84-.543 1.188-.605 6.31-3.955 8.181-5.195.36-.235.843-.278 1.251-.11.408.167.667.516.667.9zm-2.372 4.478l-5.93 3.898v2.01l5.93-3.898v-2.01z" opacity=".699"/></svg>